<svg width="277" height="214" viewBox="0 0 277 214" fill="none" xmlns="http://www.w3.org/2000/svg">
<path fill-rule="evenodd" clip-rule="evenodd" d="M219.016 166.553C216.051 166.553 213.675 165.763 211.886 164.183C210.097 162.603 209.202 160.615 209.202 158.22C209.202 155.774 210.097 153.76 211.886 152.18C213.675 150.55 216.051 149.734 219.016 149.734C221.93 149.734 224.281 150.55 226.07 152.18C227.859 153.76 228.753 155.774 228.753 158.22C228.753 160.615 227.859 162.603 226.07 164.183C224.281 165.763 221.93 166.553 219.016 166.553ZM227.45 169.993V213.109H210.429V169.993H227.45ZM25.6213 171.216C23.6279 172.337 22.0945 173.892 21.0211 175.879V156.538H4V213.109H21.0211V207.223C22.0945 209.211 23.6279 210.79 25.6213 211.963C27.6659 213.084 30.0938 213.645 32.9051 213.645C36.2787 213.645 39.32 212.778 42.029 211.045C44.7381 209.262 46.8593 206.713 48.3928 203.401C49.9773 200.037 50.7696 196.087 50.7696 191.551C50.7696 187.015 49.9773 183.091 48.3928 179.778C46.8593 176.414 44.7381 173.866 42.029 172.133C39.32 170.35 36.2787 169.458 32.9051 169.458C30.0938 169.458 27.6659 170.044 25.6213 171.216ZM31.7551 186.2C32.9307 187.474 33.5185 189.258 33.5185 191.551C33.5185 193.845 32.9307 195.628 31.7551 196.902C30.5794 198.177 29.0716 198.814 27.2314 198.814C25.3913 198.814 23.8835 198.177 22.7078 196.902C21.5322 195.628 20.9444 193.845 20.9444 191.551C20.9444 189.258 21.5322 187.474 22.7078 186.2C23.8835 184.926 25.3913 184.289 27.2314 184.289C29.0716 184.289 30.5794 184.926 31.7551 186.2ZM64.9298 210.969C68.4056 212.753 72.3158 213.645 76.6606 213.645C81.0053 213.645 84.9155 212.753 88.3913 210.969C91.8671 209.185 94.5761 206.637 96.5185 203.324C98.5119 199.96 99.5086 196.036 99.5086 191.551C99.5086 187.066 98.5119 183.167 96.5185 179.855C94.5761 176.491 91.8671 173.917 88.3913 172.133C84.9155 170.35 81.0053 169.458 76.6606 169.458C72.3158 169.458 68.4056 170.35 64.9298 172.133C61.4541 173.917 58.7194 176.491 56.726 179.855C54.7836 183.167 53.8125 187.066 53.8125 191.551C53.8125 196.036 54.7836 199.96 56.726 203.324C58.7194 206.637 61.4541 209.185 64.9298 210.969ZM135.141 169.687C140.099 169.687 143.958 171.343 146.718 174.656C149.53 177.969 150.935 182.454 150.935 188.111V213.109H133.991V190.251C133.991 188.213 133.429 186.607 132.304 185.435C131.231 184.212 129.774 183.601 127.934 183.601C126.043 183.601 124.56 184.212 123.487 185.435C122.414 186.607 121.877 188.213 121.877 190.251V213.109H104.856V169.993H121.877V176.567C123.206 174.529 124.969 172.872 127.167 171.598C129.416 170.324 132.074 169.687 135.141 169.687ZM158.316 179.778C156.783 183.091 156.016 187.015 156.016 191.551C156.016 196.087 156.783 200.037 158.316 203.401C159.901 206.713 162.048 209.262 164.757 211.045C167.466 212.778 170.507 213.645 173.881 213.645C176.692 213.645 179.094 213.084 181.088 211.963C183.132 210.79 184.691 209.211 185.765 207.223V213.109H202.786V156.538H185.765V175.879C184.691 173.892 183.132 172.337 181.088 171.216C179.094 170.044 176.692 169.458 173.881 169.458C170.507 169.458 167.466 170.35 164.757 172.133C162.048 173.866 159.901 176.414 158.316 179.778ZM184.078 186.2C185.253 187.474 185.841 189.258 185.841 191.551C185.841 193.845 185.253 195.628 184.078 196.902C182.902 198.177 181.394 198.814 179.554 198.814C177.714 198.814 176.206 198.177 175.031 196.902C173.855 195.628 173.267 193.845 173.267 191.551C173.267 189.258 173.855 187.474 175.031 186.2C176.206 184.926 177.714 184.289 179.554 184.289C181.394 184.289 182.902 184.926 184.078 186.2ZM276.77 194.533C276.923 193.462 277 192.341 277 191.169C277 186.735 276.054 182.887 274.163 179.625C272.323 176.363 269.716 173.866 266.343 172.133C263.02 170.35 259.212 169.458 254.919 169.458C250.625 169.458 246.791 170.35 243.418 172.133C240.095 173.917 237.489 176.491 235.597 179.855C233.757 183.167 232.837 187.066 232.837 191.551C232.837 196.036 233.757 199.96 235.597 203.324C237.489 206.637 240.095 209.185 243.418 210.969C246.791 212.753 250.625 213.645 254.919 213.645C258.497 213.645 261.768 212.957 264.733 211.58C267.748 210.153 270.227 208.242 272.17 205.847C274.163 203.401 275.467 200.648 276.08 197.59H258.062C257.244 199.272 255.915 200.113 254.075 200.113C251.213 200.113 249.654 198.253 249.398 194.533H276.77ZM258.369 183.906C259.289 184.62 259.749 185.69 259.749 187.117H249.628C250.139 184.212 251.903 182.76 254.919 182.76C256.299 182.76 257.449 183.142 258.369 183.906ZM92.3699 190.763C92.3699 199.043 85.3048 205.754 76.5896 205.754C67.8744 205.754 60.8092 199.043 60.8092 190.763H92.3699Z" fill="#29136D"/>
<path fill-rule="evenodd" clip-rule="evenodd" d="M219.016 161.819C216.051 161.819 213.675 161.029 211.886 159.449C210.097 157.869 209.202 155.881 209.202 153.486C209.202 151.039 210.097 149.026 211.886 147.446C213.675 145.815 216.051 145 219.016 145C221.93 145 224.281 145.815 226.07 147.446C227.859 149.026 228.753 151.039 228.753 153.486C228.753 155.881 227.859 157.869 226.07 159.449C224.281 161.029 221.93 161.819 219.016 161.819ZM227.45 208.375H210.429V165.259H227.45V208.375ZM25.6213 166.482C23.6279 167.603 22.0945 169.158 21.0211 171.145V151.804H4V208.375H21.0211V202.489C22.0945 204.476 23.6279 206.056 25.6213 207.229C27.6659 208.35 30.0938 208.91 32.9051 208.91C36.2787 208.91 39.32 208.044 42.029 206.311C44.7381 204.527 46.8593 201.979 48.3928 198.666C49.9773 195.303 50.7696 191.353 50.7696 186.817C50.7696 182.281 49.9773 178.357 48.3928 175.044C46.8593 171.68 44.7381 169.132 42.029 167.399C39.32 165.615 36.2787 164.724 32.9051 164.724C30.0938 164.724 27.6659 165.31 25.6213 166.482ZM31.7551 181.466C32.9307 182.74 33.5185 184.524 33.5185 186.817C33.5185 189.11 32.9307 190.894 31.7551 192.168C30.5794 193.442 29.0716 194.08 27.2314 194.08C25.3913 194.08 23.8835 193.442 22.7078 192.168C21.5322 190.894 20.9444 189.11 20.9444 186.817C20.9444 184.524 21.5322 182.74 22.7078 181.466C23.8835 180.191 25.3913 179.554 27.2314 179.554C29.0716 179.554 30.5794 180.191 31.7551 181.466ZM64.9298 206.235C68.4056 208.019 72.3158 208.91 76.6606 208.91C81.0053 208.91 84.9155 208.019 88.3913 206.235C91.8671 204.451 94.5761 201.903 96.5184 198.59C98.5119 195.226 99.5086 191.302 99.5086 186.817C99.5086 182.332 98.5119 178.433 96.5184 175.12C94.5761 171.757 91.8671 169.183 88.3913 167.399C84.9155 165.615 81.0053 164.724 76.6606 164.724C72.3158 164.724 68.4056 165.615 64.9298 167.399C61.454 169.183 58.7194 171.757 56.726 175.12C54.7836 178.433 53.8125 182.332 53.8125 186.817C53.8125 191.302 54.7836 195.226 56.726 198.59C58.7194 201.903 61.454 204.451 64.9298 206.235ZM135.141 164.953C140.099 164.953 143.958 166.609 146.718 169.922C149.53 173.235 150.935 177.72 150.935 183.377V208.375H133.991V185.517C133.991 183.479 133.429 181.873 132.304 180.701C131.231 179.478 129.774 178.866 127.934 178.866C126.043 178.866 124.56 179.478 123.487 180.701C122.414 181.873 121.877 183.479 121.877 185.517V208.375H104.856V165.259H121.877V171.833C123.206 169.795 124.969 168.138 127.167 166.864C129.416 165.59 132.074 164.953 135.141 164.953ZM158.316 175.044C156.783 178.357 156.016 182.281 156.016 186.817C156.016 191.353 156.783 195.303 158.316 198.666C159.901 201.979 162.048 204.527 164.757 206.311C167.466 208.044 170.507 208.91 173.881 208.91C176.692 208.91 179.094 208.35 181.088 207.229C183.132 206.056 184.691 204.476 185.765 202.489V208.375H202.786V151.804H185.765V171.145C184.691 169.158 183.132 167.603 181.088 166.482C179.094 165.31 176.692 164.724 173.881 164.724C170.507 164.724 167.466 165.615 164.757 167.399C162.048 169.132 159.901 171.68 158.316 175.044ZM184.078 181.466C185.253 182.74 185.841 184.524 185.841 186.817C185.841 189.11 185.253 190.894 184.078 192.168C182.902 193.442 181.394 194.08 179.554 194.08C177.714 194.08 176.206 193.442 175.031 192.168C173.855 190.894 173.267 189.11 173.267 186.817C173.267 184.524 173.855 182.74 175.031 181.466C176.206 180.191 177.714 179.554 179.554 179.554C181.394 179.554 182.902 180.191 184.078 181.466ZM276.77 189.798C276.923 188.728 277 187.607 277 186.435C277 182.001 276.054 178.153 274.163 174.891C272.323 171.629 269.716 169.132 266.343 167.399C263.02 165.615 259.212 164.724 254.919 164.724C250.625 164.724 246.791 165.615 243.418 167.399C240.095 169.183 237.489 171.757 235.597 175.12C233.757 178.433 232.837 182.332 232.837 186.817C232.837 191.302 233.757 195.226 235.597 198.59C237.489 201.903 240.095 204.451 243.418 206.235C246.791 208.019 250.625 208.91 254.919 208.91C258.497 208.91 261.768 208.222 264.733 206.846C267.748 205.419 270.227 203.508 272.17 201.113C274.163 198.666 275.467 195.914 276.08 192.856H258.062C257.244 194.538 255.915 195.379 254.075 195.379C251.213 195.379 249.654 193.519 249.398 189.798H276.77ZM258.369 179.172C259.289 179.886 259.749 180.956 259.749 182.383H249.628C250.139 179.478 251.903 178.025 254.919 178.025C256.299 178.025 257.449 178.408 258.369 179.172ZM92.3699 186.029C92.3699 194.308 85.3048 201.02 76.5896 201.02C67.8744 201.02 60.8092 194.308 60.8092 186.029H92.3699Z" fill="#FFBB0B"/>
<path d="M56.5204 47.3252C56.3313 50.2554 55.0012 52.8751 53.7724 55.488C52.4829 58.2156 51.1798 60.9366 49.8565 63.6507C47.3246 68.8495 44.6509 73.9808 42.0988 79.1728C42.0651 79.1525 42.0313 79.1323 41.9975 79.112C41.1806 78.6327 40.5324 79.7804 41.2481 80.3341C41.4979 80.5299 41.7477 80.7122 42.011 80.8945C42.3284 81.124 42.8617 80.9822 43.044 80.6447C46.0553 75.1353 48.7897 69.4639 51.5376 63.8195C52.888 61.0513 54.218 58.2697 55.5279 55.4812C56.7432 52.9021 57.999 50.2554 58.0935 47.3522C58.1205 46.3462 56.5811 46.326 56.5204 47.3252Z" fill="#29136D"/>
<path d="M202.282 69.3289C199.21 63.7723 194.619 59.1947 189.623 55.353C184.269 51.2344 178.347 47.8114 172.278 44.8541C159.794 38.7709 146.311 34.8752 132.585 32.8632C131.12 32.6471 129.654 32.4581 128.189 32.2825C124.415 32.1002 120.634 32.107 116.86 32.1137C112.215 32.1205 107.543 31.8369 102.918 32.3365C98.7251 32.7889 94.5795 33.8759 90.6838 35.4896C86.5586 37.1977 82.8992 39.6081 79.233 42.1265C77.302 43.4498 75.3238 44.6921 73.1565 45.5901C72.5624 45.8399 71.9615 46.0627 71.3538 46.2787C70.3343 47.0552 69.3351 47.8721 68.3696 48.7228C58.4986 57.4662 51.8348 70.632 54.9068 83.98C57.9315 97.1187 68.3696 106.956 79.9149 113.046C86.302 116.415 93.1212 118.866 99.9944 121.04C107.576 123.437 115.253 125.59 123.058 127.15C137.459 130.026 152.583 130.843 166.849 126.826C178.719 123.484 189.974 116.935 197.536 107.037C201.674 101.615 204.652 95.2283 205.658 88.4496C206.637 81.833 205.53 75.1826 202.282 69.3289Z" fill="#29136D"/>
<path d="M172.906 107.597C172.885 107.408 172.777 107.28 172.649 107.212C172.433 106.821 172.048 106.551 171.508 106.578C170.698 106.625 169.928 106.983 169.131 107.145C168.348 107.3 167.551 107.334 166.755 107.327C165.155 107.314 163.588 106.976 162.069 106.416C159.186 105.356 156.769 103.337 154.116 101.757C153.893 101.48 153.576 101.291 153.224 101.311C152.968 101.278 152.738 101.379 152.576 101.561C150.125 103.114 149.45 106.639 148.248 109.285C146.804 112.479 144.981 115.436 143.131 118.346C141.274 121.269 139.323 124.152 137.709 127.258C136.17 130.229 135.724 134.482 137.081 137.73C138.236 140.491 151.584 156.243 166.275 132.882C168.301 129.662 170.954 123.774 172.055 120.014C173.142 116.28 173.385 111.52 172.906 107.597Z" fill="#FFBB0B"/>
<path d="M174.512 101.771C171.244 94.391 157.349 98.8674 156.782 98.6513C153.994 97.5846 152.097 100.947 151.8 101.629C151.611 102.054 151.455 102.5 151.32 102.945C150.834 104.066 150.632 105.41 150.476 106.483C150.22 108.239 150.22 110.028 150.645 111.763C151.435 114.99 153.771 117.651 156.796 118.994C163.412 121.924 170.88 118.265 173.952 112.006C174.85 110.17 176.288 105.774 174.512 101.771Z" fill="#D1940D"/>
<path d="M170.428 98.1854C167.984 96.5043 163.811 96.7203 161.191 96.9904C159.375 97.1794 157.444 97.6926 156.202 99.0767C155.743 99.583 155.196 100.407 154.899 101.089C154.311 102.419 154.136 103.978 154.311 105.227C154.615 107.401 156.026 109.251 157.924 110.413C158.16 110.561 158.396 110.595 158.612 110.561C159.375 111.182 160.266 111.696 161.299 112.067C163.838 112.972 166.667 112.533 168.848 111.007C171.103 109.434 173.284 106.915 173.783 104.215C174.222 101.825 172.933 98.8066 170.428 98.1854Z" fill="#91650C"/>
<path d="M166.748 57.716C166.66 55.1369 165.823 52.416 163.865 50.6403C163.426 50.242 162.926 49.8976 162.4 49.6275C162.339 49.4858 162.271 49.344 162.204 49.2022C161.029 46.8796 158.639 44.9486 156.06 44.449C153.548 43.9629 151.185 44.8811 149.376 46.6298C148.37 47.602 147.546 48.7768 146.857 49.9854C146.202 51.1467 145.716 52.443 144.879 53.4827C142.813 56.0484 139.194 54.0026 136.473 54.9884C135.305 55.4137 135.764 57.2299 136.993 56.8721C138.985 56.2982 141.044 57.0881 143.07 56.7843C145.034 56.4872 146.371 55.1369 147.323 53.476C149.031 50.5188 150.868 46.0087 155.054 46.3665C156.809 46.515 158.464 47.575 159.584 48.9456C158.767 48.9659 157.95 49.1887 157.194 49.6546C155.29 50.8293 154.554 53.368 155.81 55.2989C157.086 57.2569 159.686 57.1827 161.36 55.7986C162.42 54.9141 162.899 53.7326 162.96 52.4835C166.167 55.8593 164.277 61.8143 163.615 65.8113C163.521 66.3919 164.358 66.8848 164.655 66.2501C165.917 63.5495 166.849 60.7475 166.748 57.716ZM159.537 54.617C157.971 55.3935 156.641 53.8136 157.329 52.2945C157.944 50.9509 159.449 50.7281 160.746 51.0859C161.137 52.4362 160.975 53.9081 159.537 54.617Z" fill="white"/>
<path d="M141.476 57.7025C139.957 57.7768 138.384 57.8038 136.852 57.7025C136.885 58.4452 136.939 59.0056 137 59.0124C138.479 59.1339 139.87 58.9651 141.348 58.9921C141.713 58.9988 142.064 58.6613 142.064 58.2697C142.064 58.0671 142.057 57.7903 142.064 57.6013C141.868 57.608 141.672 57.689 141.476 57.7025Z" fill="#A2BCBA"/>
<path d="M142.064 53.8811C142.057 53.746 142.037 53.611 141.983 53.5097C141.915 53.3882 141.774 53.3139 141.625 53.2734C141.422 53.1789 137.729 53.0304 136.96 53.2937C136.73 53.3747 136.818 58.2899 137.007 58.3101C138.485 58.4317 139.876 58.2629 141.355 58.2899C141.72 58.2966 142.071 57.9591 142.071 57.5675C142.071 56.1699 142.152 55.1841 142.064 53.8811Z" fill="white"/>
<path d="M159.942 63.7925C158.322 63.7925 156.418 64.704 155.554 66.0071C154.372 67.776 153.778 69.8758 153.393 71.9485C152.617 76.1143 152.61 80.8472 154.028 84.8847C154.541 86.3431 155.412 87.8014 156.951 88.3281C158.619 88.8952 160.462 88.1525 161.65 86.9507C163.021 85.5599 163.642 83.6221 164.121 81.7789C164.655 79.7399 165.06 77.6267 165.181 75.5201C165.424 71.0708 164.081 63.7925 159.942 63.7925Z" fill="#BFD1D0"/>
<path d="M163.858 67.3506C163.331 66.0881 162.42 64.6432 161.002 64.3056C159.382 63.9141 157.788 65.6965 157.16 66.9118C154.379 72.2861 154.332 76.6544 155.297 81.4211C155.567 82.7512 156.539 84.1623 157.667 84.9792C158.882 85.857 159.47 85.6612 160.921 85.3911C162.467 85.1008 163.311 83.9867 163.662 82.5081C164.081 80.7392 164.351 78.9297 164.52 77.1271C164.817 73.9808 165.1 70.3416 163.858 67.3506Z" fill="white"/>
<path d="M162.92 70.5307C162.69 69.8285 162.447 69.1331 162.278 68.4174C162.13 67.7625 162.123 67.0603 161.833 66.4527C161.799 66.3784 161.738 66.3311 161.677 66.2974C161.637 66.2096 161.563 66.1353 161.461 66.1083C160.165 65.7775 160.705 68.0528 160.813 68.674C160.969 69.5854 161.218 71.5029 162.582 71.1181C162.825 71.0505 162.994 70.7805 162.92 70.5307Z" fill="#BFD1D0"/>
<path d="M63.974 7.64571C66.8908 7.87526 138.006 7.79424 142.644 7.65246C143.016 5.87002 143.063 5.01931 142.968 4.64122C142.469 2.64948 140.902 2.31189 138.728 2.29164C125.657 2.17686 73.0415 2.3254 72.5284 2.33215C71.1173 2.3524 69.1053 2.42667 67.3026 2.50094C65.0341 2.58871 63.4137 3.52044 63.6162 5.27587C63.6905 5.91728 63.839 6.76124 63.974 7.64571Z" fill="#C6DBDB"/>
<path d="M69.1865 81.0498C69.5849 82.7917 72.0087 86.2688 75.3778 86.2688C83.2367 86.2688 131.14 86.2823 132.632 86.2823C135.913 86.2823 137.513 82.6634 137.534 80.3273C134.813 80.3341 69.7402 80.9687 69.1865 81.0498Z" fill="#BFD1D0"/>
<path d="M110.398 81.887C108.076 81.8802 105.753 81.968 103.424 81.9342C102.337 81.9207 101.257 81.9545 100.17 81.9815C99.1029 82.0085 97.9214 81.941 96.9356 82.3933C96.49 82.5959 96.4833 83.3791 96.9356 83.5816C97.8741 84.0002 98.9746 83.9462 99.9874 83.953C101.135 83.9665 102.276 83.9935 103.424 83.9597C105.753 83.899 108.427 84.007 109.865 83.8247C111.168 83.6627 111.715 81.887 110.398 81.887Z" fill="#778786"/>
<path d="M142.773 6.0523C142.726 4.68171 140.963 3.57444 138.783 3.55418C125.711 3.4394 73.0957 3.58794 72.5826 3.59469C71.1715 3.61495 69.1595 3.68922 67.3568 3.76348C65.0882 3.85126 63.6299 5.12732 63.8257 6.57893C64.6561 12.7972 68.194 31.9584 69.2945 33.1265C69.9494 33.8219 71.158 34.227 72.4408 34.2405C81.0762 34.3148 89.0904 34.308 97.4017 34.3148C97.6853 34.3148 107.543 34.4025 109.683 34.3148C111.357 34.2472 132.396 34.389 133.962 34.254C135.825 34.0987 137.101 33.0995 137.25 31.9922C137.378 31.1212 142.901 9.60367 142.773 6.0523Z" fill="#2F3333"/>
<path d="M126.494 33.4573C113.869 33.2345 101.243 33.3155 88.6176 33.5248C86.8622 33.5518 85.1 33.5856 83.3446 33.6261C81.5959 33.6598 79.692 33.5788 78.0446 34.2202C77.3086 34.5105 77.2546 35.503 78.0446 35.7731C79.5029 36.2727 81.076 36.1849 82.5952 36.1782C84.1683 36.1714 85.7347 36.1377 87.3078 36.1174C90.4474 36.0837 93.5869 36.0567 96.7331 36.0499C103.08 36.0229 109.426 36.0837 115.766 36.1377C119.344 36.1647 122.93 36.2052 126.508 36.2525C128.297 36.2795 128.297 33.4843 126.494 33.4573Z" fill="#2F3333"/>
<path d="M137.635 55.3597C137.621 53.4355 137.453 35.5503 136.095 34.011C135.528 33.3628 134.05 33.0725 132.024 32.9104C131.471 32.8699 129.492 32.7822 128.264 32.9037C127.615 32.9645 127.082 33.4303 126.927 34.065C126.859 34.362 126.846 34.6929 126.785 34.9562C126.704 35.3005 126.4 35.5436 126.042 35.5436C113.741 35.4423 101.432 35.4018 89.1377 35.5436C85.9779 35.5773 82.7641 35.4693 79.6043 35.6989C79.1722 35.7326 78.8009 35.4153 78.7604 34.99C78.7469 34.8617 78.7401 34.7401 78.7401 34.6254C78.7266 34.0312 78.7063 33.302 78.0987 33.3223C74.9052 33.4033 69.6591 33.2953 68.7746 36.239C68.2143 38.089 68.1332 39.7229 67.9509 41.6201C67.7416 43.8549 67.8632 66.3312 68.5248 75.2974C68.6801 77.4039 68.4978 80.037 69.5916 81.9275C70.3815 83.2913 71.9614 83.7302 73.5143 83.7505C81.8526 83.8585 89.644 83.845 97.7055 83.8585C97.9891 83.8585 98.4009 83.3791 98.6372 83.0685C98.7655 82.8997 98.9546 82.7917 99.1639 82.7782C101.439 82.6432 106.847 82.7107 108.427 82.7512C108.609 82.758 108.778 82.8255 108.907 82.9538C109.237 83.2913 109.588 83.7977 109.994 83.8585C111.648 84.1285 132.706 83.9733 134.273 83.764C136.136 83.5074 137.412 81.8937 137.561 80.0978C137.682 78.68 137.729 69.9028 137.635 55.3597Z" fill="#DFEAEA"/>
<path d="M134.542 61.2809C134.448 60.9771 133.381 40.7153 133.32 39.7296C133.307 39.5135 133.3 38.9329 133.293 38.3388C133.287 37.4138 132.537 36.6576 131.612 36.6508C124.867 36.6036 99.4743 36.4348 86.4977 36.5023C82.2036 36.5226 77.9095 36.5361 73.6222 36.6643C73.2982 36.6711 73.0011 36.9142 72.9538 37.2382C72.8728 37.3328 72.8255 37.4543 72.812 37.5961C72.4137 41.6808 72.1571 57.8916 71.9343 61.9898C71.9141 62.4287 72.3192 62.7865 72.7378 62.7933C73.6155 62.8 90.4069 62.5975 97.7392 62.5705C105.382 62.5435 113.032 62.5165 120.675 62.4489C125.036 62.4084 129.391 62.3544 133.753 62.3342C134.266 62.3274 134.705 61.8008 134.542 61.2809Z" fill="white"/>
<path d="M115.091 78.5111C115.03 76.3573 114.861 74.3723 114.747 72.2186C114.625 69.9568 114.767 67.6544 114.497 65.4129C114.443 64.9605 114.125 64.4677 113.592 64.5082C111.715 64.6567 109.642 64.5622 107.765 64.5622C105.821 64.5622 103.883 64.5689 101.939 64.5892C100.055 64.6094 98.1712 64.6365 96.2875 64.677C95.9161 64.6837 95.4638 64.7377 95.0452 64.6905C94.2147 64.6094 93.3708 64.9943 93.0602 65.8315C92.7901 66.5809 92.6686 75.2028 92.7969 77.1405C92.8576 78.079 92.8576 79.0512 92.9994 79.9762C93.1007 80.6109 93.4383 80.962 94.0864 81.043C95.0114 81.1578 96.517 81.07 97.4488 81.1037C98.4818 81.1443 99.5215 81.1578 100.555 81.1713C102.513 81.1983 104.464 81.2253 106.422 81.2455C108.434 81.2658 110.446 81.1173 112.458 81.124C113.173 81.124 113.923 81.0835 114.47 80.5636C115.037 80.0302 115.111 79.247 115.091 78.5111Z" fill="#BFD1D0"/>
<path d="M135.245 34.6523C135.042 34.47 134.799 34.3485 134.515 34.3485C134.252 34.3485 133.975 34.4633 133.786 34.6523C133.59 34.8481 133.496 35.1047 133.482 35.3815C133.469 35.6583 133.604 35.9149 133.786 36.1107C133.968 36.3132 134.239 36.3943 134.502 36.4078C134.738 36.4213 134.954 36.3267 135.13 36.185C135.353 36.0162 135.481 35.7934 135.515 35.5165C135.569 35.206 135.488 34.8751 135.245 34.6523Z" fill="#BAC6C6"/>
<path d="M127.035 31.1347C127.636 31.0132 128.223 30.8444 128.77 30.6284C130.735 29.8722 131.545 27.8129 132.193 25.963C133.003 23.6606 133.915 21.3178 134.421 18.9345C134.927 16.5444 134.306 14.1948 134.158 11.8115C133.482 11.3186 132.78 10.873 132.031 10.5084C127.257 10.4612 122.504 11.1768 117.724 11.0958C114.956 11.0485 112.242 10.5692 109.487 10.3329C107.205 10.1371 104.909 10.0493 102.614 10.0966C102.195 10.1236 101.777 10.1371 101.358 10.1371C100.649 10.1236 100.339 9.52267 100.426 8.98929C96.6656 8.99604 93.04 9.00279 89.8262 9.00954C89.9883 9.46866 89.7654 10.0425 89.124 10.0358C86.9905 10.0155 84.8907 9.58343 82.7505 9.73872C80.806 9.88051 78.794 10.1776 76.8765 10.5489C74.3582 11.0418 72.3327 12.5879 70.5637 14.3839C71.6845 20.2511 73.9058 29.4266 74.689 30.203C75.2426 30.7566 76.2689 31.074 77.3559 31.0875C84.6747 31.1482 91.4736 31.1415 98.5156 31.1482C98.7587 31.1482 107.11 31.2225 108.927 31.1482C110.074 31.0942 121.762 31.1617 127.035 31.1347Z" fill="#61FFFF"/>
<path d="M118.204 60.3897L117.731 55.9741C117.677 55.461 117.245 55.0694 116.732 55.0626C114.234 55.0356 107.016 54.9748 101.135 55.0019C96.0986 55.0221 88.0709 55.1031 85.3499 55.1301C84.8233 55.1369 84.3845 55.542 84.3507 56.0686L84.0199 60.5585C83.9793 61.1391 84.4317 61.6387 85.0124 61.6455C87.7265 61.686 94.8833 61.7805 98.1038 61.7805C102.303 61.7738 106.496 61.767 110.696 61.7468C112.411 61.74 115.584 61.5915 117.245 61.5037C117.832 61.4834 118.271 60.9703 118.204 60.3897Z" fill="#151616"/>
<path d="M118.129 59.5525L117.656 55.1369C117.602 54.6237 117.17 54.2321 116.657 54.2254C114.159 54.1984 106.942 54.1376 101.061 54.1646C96.0241 54.1849 87.9964 54.2659 85.2755 54.2929C84.7488 54.2997 84.31 54.7048 84.2762 55.2314L83.9454 59.7212C83.9049 60.3019 84.3572 60.8015 84.9379 60.8083C87.6521 60.8488 94.8088 60.9433 98.0294 60.9433C102.229 60.9365 106.422 60.9298 110.621 60.9095C112.336 60.9028 115.509 60.7543 117.17 60.6665C117.751 60.6462 118.19 60.1331 118.129 59.5525Z" fill="#2F3333"/>
<path d="M127.487 57.0138L127.446 55.4407C127.44 55.2584 127.399 55.1166 127.352 55.1166C127.122 55.1099 126.461 55.0829 125.92 55.0964C125.461 55.1031 124.725 55.1301 124.476 55.1436C124.428 55.1436 124.388 55.2922 124.381 55.4812L124.347 57.0814C124.341 57.2907 124.388 57.4662 124.442 57.4662C124.692 57.4797 125.347 57.5135 125.644 57.5135C126.028 57.5135 126.413 57.5067 126.798 57.5C126.953 57.5 127.244 57.446 127.399 57.4122C127.453 57.4054 127.494 57.2232 127.487 57.0138Z" fill="#151616"/>
<path d="M127.554 60.7745L127.514 59.2014C127.507 59.0191 127.467 58.8773 127.419 58.8773C127.19 58.8705 126.528 58.8435 125.988 58.857C125.529 58.8638 124.793 58.8908 124.543 58.9043C124.496 58.9043 124.455 59.0528 124.449 59.2419L124.415 60.842C124.408 61.0513 124.455 61.2269 124.509 61.2269C124.759 61.2404 125.414 61.2741 125.711 61.2741C126.096 61.2741 126.481 61.2674 126.866 61.2606C127.021 61.2606 127.311 61.2066 127.467 61.1729C127.521 61.1593 127.561 60.9771 127.554 60.7745Z" fill="#151616"/>
<path d="M123.564 60.7745L123.524 59.2014C123.517 59.0191 123.476 58.8773 123.429 58.8773C123.2 58.8705 122.538 58.8435 121.998 58.857C121.539 58.8638 120.803 58.8908 120.553 58.9043C120.506 58.9043 120.465 59.0528 120.458 59.2419L120.425 60.842C120.418 61.0513 120.465 61.2269 120.519 61.2269C120.769 61.2404 121.424 61.2741 121.721 61.2741C122.106 61.2741 122.491 61.2674 122.876 61.2606C123.031 61.2606 123.321 61.2066 123.476 61.1729C123.53 61.1593 123.571 60.9771 123.564 60.7745Z" fill="#151616"/>
<path d="M131.653 60.7745L131.612 59.2014C131.605 59.0191 131.565 58.8773 131.518 58.8773C131.288 58.8705 130.626 58.8435 130.086 58.857C129.627 58.8638 128.891 58.8908 128.641 58.9043C128.594 58.9043 128.554 59.0528 128.547 59.2419L128.513 60.842C128.506 61.0513 128.554 61.2269 128.608 61.2269C128.857 61.2404 129.512 61.2741 129.809 61.2741C130.194 61.2741 130.579 61.2674 130.964 61.2606C131.119 61.2606 131.41 61.2066 131.565 61.1729C131.612 61.1593 131.653 60.9771 131.653 60.7745Z" fill="#151616"/>
<path d="M127.487 56.5412L127.446 54.9681C127.44 54.7858 127.399 54.644 127.352 54.644C127.122 54.6373 126.461 54.6103 125.92 54.6238C125.461 54.6305 124.725 54.6575 124.476 54.671C124.428 54.671 124.388 54.8196 124.381 55.0086L124.347 56.6087C124.341 56.818 124.388 56.9936 124.442 56.9936C124.692 57.0071 125.347 57.0408 125.644 57.0408C126.028 57.0408 126.413 57.0341 126.798 57.0273C126.953 57.0273 127.244 56.9733 127.399 56.9396C127.453 56.9328 127.494 56.7505 127.487 56.5412Z" fill="#2F3333"/>
<path d="M127.554 60.2952L127.514 58.722C127.507 58.5397 127.467 58.3979 127.419 58.3979C127.19 58.3912 126.528 58.3642 125.988 58.3777C125.529 58.3844 124.793 58.4114 124.543 58.425C124.496 58.425 124.455 58.5735 124.449 58.7625L124.415 60.3627C124.408 60.572 124.455 60.7475 124.509 60.7475C124.759 60.761 125.414 60.7948 125.711 60.7948C126.096 60.7948 126.481 60.788 126.866 60.7813C127.021 60.7813 127.311 60.7273 127.467 60.6935C127.521 60.6868 127.561 60.5045 127.554 60.2952Z" fill="#2F3333"/>
<path d="M123.564 60.2952L123.524 58.722C123.517 58.5397 123.476 58.3979 123.429 58.3979C123.2 58.3912 122.538 58.3642 121.998 58.3777C121.539 58.3844 120.803 58.4114 120.553 58.425C120.506 58.425 120.465 58.5735 120.458 58.7625L120.425 60.3627C120.418 60.572 120.465 60.7475 120.519 60.7475C120.769 60.761 121.424 60.7948 121.721 60.7948C122.106 60.7948 122.491 60.788 122.876 60.7813C123.031 60.7813 123.321 60.7273 123.476 60.6935C123.53 60.6868 123.571 60.5045 123.564 60.2952Z" fill="#2F3333"/>
<path d="M131.653 60.2952L131.612 58.722C131.605 58.5397 131.565 58.3979 131.518 58.3979C131.288 58.3912 130.626 58.3642 130.086 58.3777C129.627 58.3844 128.891 58.4114 128.641 58.425C128.594 58.425 128.554 58.5735 128.547 58.7625L128.513 60.3627C128.506 60.572 128.554 60.7475 128.608 60.7475C128.857 60.761 129.512 60.7948 129.809 60.7948C130.194 60.7948 130.579 60.788 130.964 60.7813C131.119 60.7813 131.41 60.7273 131.565 60.6935C131.612 60.6868 131.653 60.5045 131.653 60.2952Z" fill="#2F3333"/>
<path d="M130.626 44.9756C131.281 44.9756 131.801 44.4355 131.781 43.7806C131.74 42.7746 131.72 41.7888 131.713 41.6673C131.7 41.4715 131.693 40.9449 131.693 40.398C131.686 39.554 131.005 38.8721 130.161 38.8654C124.023 38.8249 99.9739 39.0477 88.1652 39.1084C85.5321 39.1219 80.2388 39.0409 77.0723 39.1152C75.6544 39.1489 74.5404 40.3237 74.5809 41.7416C74.6012 42.3627 74.6147 43.0649 74.6214 43.8211C74.6282 44.4557 75.1413 44.9689 75.7759 44.9621C82.9867 44.9284 120.215 44.9689 130.626 44.9756Z" fill="#151616"/>
<path d="M132.159 49.9583C132.098 49.1144 132.044 48.4325 131.99 47.6965C131.95 47.1294 131.43 46.6905 130.809 46.6973C124.179 46.8053 95.9161 46.6433 89.8329 46.6433C89.1982 46.6433 88.6851 47.1091 88.6716 47.6898C88.6379 49.3507 88.6311 50.3297 88.6311 52.1931C88.6311 52.7873 89.1645 53.2667 89.8126 53.2599C100.311 53.1181 121.451 52.8008 129.323 52.7468C130.971 52.7333 132.267 51.4572 132.159 49.9583Z" fill="#151616"/>
<path d="M75.5194 54.9613C74.959 54.9681 74.4999 55.4204 74.4864 55.9808C74.4391 58.1278 74.3784 59.8765 74.3311 60.7745C74.3109 61.1728 74.6822 61.5037 75.0603 61.5037C75.3101 61.5037 77.7947 61.5239 80.4279 61.5172C81.7579 61.5104 82.872 60.5044 83.0138 59.1811C83.115 58.2021 83.2366 57.0948 83.3513 56.1091C83.4189 55.4947 82.9395 54.9546 82.3183 54.9546C80.5426 54.9546 77.2681 54.9478 75.5194 54.9613Z" fill="#151616"/>
<path d="M74.6215 47.5345C74.6147 49.1144 74.5945 50.7821 74.5675 52.3822C74.5607 52.9021 75.0198 53.3275 75.587 53.3275C77.9906 53.3072 83.5607 53.3072 85.8495 53.3072C86.4031 53.3072 86.8487 52.9021 86.8622 52.3957C86.9027 50.7618 86.9298 49.2089 87.031 47.5885C87.0648 47.0484 86.5922 46.596 86.0048 46.6028C83.8037 46.6298 78.821 46.6771 75.6545 46.6095C75.0873 46.596 74.6215 47.0147 74.6215 47.5345Z" fill="#151616"/>
<path d="M130.572 44.314C131.227 44.314 131.747 43.7738 131.727 43.1189C131.687 42.1129 131.666 41.1272 131.66 41.0057C131.646 40.8099 131.639 40.2832 131.639 39.7363C131.633 38.8924 130.951 38.2105 130.107 38.2037C123.969 38.1632 99.9199 38.386 88.1113 38.4468C85.4781 38.4603 80.1848 38.3793 77.0183 38.4535C75.6005 38.4873 74.4864 39.6621 74.5269 41.0799C74.5472 41.7011 74.5607 42.4032 74.5675 43.1594C74.5742 43.7941 75.0873 44.3072 75.722 44.3005C82.9328 44.2667 120.161 44.3072 130.572 44.314Z" fill="#2F3333"/>
<path d="M132.112 49.3507C132.051 48.5067 131.997 47.8248 131.943 47.0889C131.903 46.5218 131.383 46.0829 130.762 46.0897C124.131 46.1977 95.869 46.0356 89.7858 46.0356C89.1511 46.0356 88.638 46.5015 88.6245 47.0821C88.5907 48.7431 88.584 49.7221 88.584 51.5855C88.584 52.1797 89.1174 52.659 89.7655 52.6523C100.264 52.5105 121.404 52.1932 129.276 52.1391C130.924 52.1256 132.213 50.8563 132.112 49.3507Z" fill="#2F3333"/>
<path d="M75.4655 54.2997C74.9051 54.3064 74.446 54.7588 74.4325 55.3192C74.3852 57.4662 74.3244 59.2149 74.2772 60.1129C74.2569 60.5112 74.6282 60.842 75.0063 60.842C75.2562 60.842 77.7408 60.8623 80.3739 60.8555C81.704 60.8488 82.818 59.8428 82.9598 58.5195C83.0611 57.5405 83.1826 56.4332 83.2974 55.4475C83.3649 54.833 82.8855 54.2929 82.2644 54.2929C80.4954 54.2929 77.2209 54.2862 75.4655 54.2997Z" fill="#2F3333"/>
<path d="M74.5675 46.9269C74.5608 48.5068 74.5405 50.1744 74.5135 51.7746C74.5067 52.2944 74.9659 52.7198 75.533 52.7198C77.9366 52.6995 83.5067 52.6995 85.7955 52.6995C86.3492 52.6995 86.7948 52.2944 86.8083 51.7881C86.8488 50.1542 86.8758 48.6013 86.9771 46.9809C87.0108 46.4407 86.5382 45.9884 85.9508 45.9951C83.7498 46.0221 78.767 46.0694 75.6005 46.0019C75.0334 45.9884 74.5743 46.407 74.5675 46.9269Z" fill="#2F3333"/>
<path d="M136.635 7.90227C131.518 7.70648 126.393 7.61195 121.275 7.61871C118.777 7.62546 116.279 7.75374 113.781 7.70648C111.465 7.66597 109.98 7.48367 107.84 7.72673C107.792 7.42291 107.603 7.12583 107.306 6.96379C106.827 6.70048 106.131 6.77475 105.612 6.76124C105.612 6.76124 100.737 6.78825 99.9064 6.82876C99.4541 6.84902 98.9747 6.93679 98.6439 7.28112C98.3806 7.55119 98.286 7.89552 98.3333 8.21285C97.5636 8.2196 96.7939 8.14533 96.031 8.12508C94.7212 8.07782 93.4046 8.05081 92.0948 8.0238C89.5291 7.97654 86.9703 7.96979 84.4046 7.99005C79.2801 8.03056 74.1556 8.19935 69.0378 8.47617C68.6733 8.49642 68.3897 8.8205 68.491 9.19184C69.0716 11.3321 69.6522 13.4724 70.2261 15.6127C70.4152 16.3148 71.4887 16.0178 71.3132 15.3156C70.7055 12.8985 72.1976 10.5692 74.5607 10.1033C74.7498 10.0763 74.9388 10.0561 75.1346 10.029C75.5262 9.97503 75.7085 9.61045 75.668 9.31337C78.7062 9.20535 81.7445 9.13783 84.7827 9.11082C87.3484 9.09057 89.9072 9.10407 92.4729 9.13108C93.7827 9.14458 95.0993 9.17159 96.4091 9.19859C97.6379 9.2256 98.8194 9.39439 99.974 8.91502C100.089 8.86776 100.17 8.78674 100.217 8.69897C100.615 8.67872 101.108 8.68547 101.237 8.67872C101.736 8.63821 102.229 8.60445 102.729 8.56394C102.965 8.54368 105.375 8.42215 105.355 8.46941C105.206 8.89477 105.807 9.2256 106.104 8.90827C106.104 8.90827 106.104 8.90152 106.111 8.90152C106.165 8.93528 106.226 8.95553 106.294 8.96229C108.751 9.19184 111.317 8.89477 113.788 8.84076C116.347 8.78674 118.906 8.75974 121.471 8.75298C122.484 8.75298 123.497 8.75974 124.509 8.76649C124.604 8.87451 124.732 8.94878 124.908 8.96229C126.954 9.12433 128.966 9.50917 130.924 10.1303C132.557 10.6502 135.569 11.5617 135.137 13.8302C135.002 14.5392 136.001 14.8295 136.23 14.1341C136.831 12.2976 137.155 10.4071 137.209 8.46941C137.209 8.15884 136.933 7.91578 136.635 7.90227Z" fill="#29136D"/>
<path d="M105.956 29.8182C104.207 29.7236 102.459 29.7371 100.703 29.8519C100.406 29.8722 100.257 32.5526 100.528 32.5391C102.047 32.4648 103.573 32.3905 105.092 32.3163C105.321 32.3028 106.388 29.8384 105.956 29.8182Z" fill="#29136D"/>
<path d="M102.985 29.44C102.999 30.6959 103.249 31.8774 104.349 32.6066C105.463 33.3425 106.894 33.4438 108.191 33.5113C111.681 33.6801 115.145 33.0387 118.582 32.512C120.432 32.2285 122.295 31.9787 124.172 31.9044C125.819 31.8369 127.528 32.2015 129.155 32.0192C130.518 31.8639 131.356 31.0267 131.916 29.8249C132.632 28.2855 133.185 26.6516 133.719 25.038C134.765 21.8579 136.271 16.7267 136.521 15.3426C137.297 10.9337 122.153 12.4799 115.422 11.9937C113.464 11.852 111.533 11.5144 109.609 11.1498C108.069 10.8595 106.354 10.2586 104.781 10.3126C103.465 10.3598 103.039 10.4949 103.019 11.6494C102.985 13.5669 102.945 25.6794 102.985 29.44Z" fill="#EBEDED"/>
<path d="M103.006 11.5481C102.992 10.3936 102.58 10.3058 101.264 10.2586C99.6904 10.2046 97.9688 10.7987 96.4361 11.0958C94.5119 11.4604 92.5809 11.8047 90.623 11.9465C83.8983 12.4326 69.0987 10.8797 69.8751 15.2886C70.1182 16.6727 71.2727 21.8174 72.326 24.9907C72.8593 26.5976 73.413 28.2382 74.1287 29.7776C74.689 30.9794 75.5262 31.8166 76.8901 31.9719C78.5172 32.161 80.2254 31.7964 81.8728 31.8571C83.7498 31.9314 85.6065 32.1812 87.4632 32.4648C90.8998 32.9847 94.3634 33.6328 97.854 33.464C99.1503 33.4033 100.582 33.2952 101.696 32.5593C102.796 31.8369 103.006 30.6621 103.012 29.4063C103.046 25.6456 103.033 13.4724 103.006 11.5481Z" fill="white"/>
<path d="M129.756 17.4761C127.757 17.179 125.63 17.3073 123.618 17.3478C121.573 17.3883 119.527 17.5099 117.501 17.7934C115.442 18.077 113.484 18.6239 111.486 19.1573C109.204 19.7717 107.232 19.7987 105.119 18.6847C104.997 18.6171 104.876 18.7724 104.97 18.8737C106.125 20.1295 108.096 20.2915 109.69 20.116C111.81 19.8729 113.835 19.1033 115.928 18.7184C118.17 18.3066 120.452 18.1108 122.727 18.0432C125.029 17.969 127.399 18.2255 129.688 17.996C129.951 17.969 130.073 17.5234 129.756 17.4761Z" fill="white"/>
<path d="M128.945 20.4739C125.306 19.5489 121.114 19.981 117.495 20.7979C115.591 21.23 113.714 21.7972 111.776 22.0875C110.743 22.2428 109.69 22.3171 108.643 22.263C107.536 22.2023 106.503 21.8782 105.416 21.7027C105.274 21.6824 105.2 21.8444 105.321 21.9322C106.733 22.9517 108.839 22.9855 110.513 22.8639C112.471 22.7222 114.382 22.2293 116.286 21.7702C118.339 21.2705 120.391 20.879 122.498 20.7642C124.658 20.6426 126.724 20.9195 128.864 21.068C129.209 21.0883 129.27 20.5549 128.945 20.4739Z" fill="white"/>
<path d="M116.455 23.9037C114.557 24.3696 112.728 24.9435 110.756 25.0582C108.839 25.1663 107.205 24.6666 105.375 24.2278C105.24 24.194 105.179 24.3628 105.287 24.4438C106.725 25.4971 108.859 25.6524 110.587 25.5916C112.606 25.5241 114.692 25.0987 116.59 24.4101C116.907 24.2953 116.785 23.8227 116.455 23.9037Z" fill="white"/>
<path d="M120.728 26.9284C119.621 26.7191 118.413 26.9352 117.305 27.104C115.914 27.3133 114.544 27.6239 113.153 27.8602C111.897 28.0762 110.628 28.2113 109.352 28.1573C108.015 28.1032 106.827 27.7184 105.551 27.3808C105.463 27.3606 105.375 27.4821 105.456 27.5428C107.272 28.9539 110.095 28.8324 112.255 28.5691C113.578 28.4071 114.888 28.137 116.205 27.9074C117.71 27.6374 119.23 27.6374 120.728 27.4213C120.978 27.3876 120.971 26.9757 120.728 26.9284Z" fill="white"/>
<path d="M75.067 9.79947C74.0407 9.77246 73.0145 9.83998 71.9882 9.86699C71.4211 9.88724 70.4354 9.73195 69.9695 10.1641C69.6792 10.4341 69.7197 10.792 69.7737 11.1498C69.8817 11.8992 70.0438 12.7094 70.3071 13.4454C70.3138 13.4791 70.3678 13.6412 70.3948 13.6749C70.4286 13.7559 70.4556 13.8302 70.4894 13.9045C70.5501 14.0328 70.7392 13.8032 70.7392 13.7897C70.8675 13.7627 74.6484 10.4679 75.0602 10.4341C75.4721 10.4071 75.4788 9.80622 75.067 9.79947Z" fill="#0F082B"/>
<path d="M136.068 10.5354C136.048 10.1641 136.075 9.77923 135.717 9.56993C135.285 9.31337 134.536 9.42139 134.056 9.39439C133.509 9.36063 132.962 9.31337 132.416 9.30661C132.213 9.25935 132.011 9.21884 131.808 9.17158C131.639 9.13782 131.504 9.21884 131.43 9.34037C131.356 9.38088 131.335 9.48891 131.383 9.54967C131.389 9.6442 131.443 9.73197 131.545 9.79273C133.118 10.7042 134.353 11.8993 135.488 13.3103C135.67 13.5399 136.007 13.3306 136.021 13.0875C136.075 12.2368 136.116 11.3861 136.068 10.5354Z" fill="#0F082B"/>
<path d="M106.435 14.8362C109.426 15.9367 112.802 15.8625 115.874 15.4033C122.389 14.4311 129.843 11.5009 135.893 15.5924C136.116 15.7477 136.446 15.5924 136.514 15.3426C137.128 12.9457 133.651 8.97576 130.1 8.88124C128.331 8.83398 126.562 8.83398 124.793 8.81372C117.724 8.7192 110.898 8.7327 103.829 8.62468C103.532 8.61792 103.33 8.86774 103.309 9.14455C103.282 9.59016 103.181 13.6412 106.435 14.8362Z" fill="#A5B7B6"/>
<path d="M103.093 9.13781C103.073 8.86099 102.87 8.61118 102.573 8.61793C95.5044 8.72596 88.6785 8.71245 81.6095 8.80698C79.8406 8.83398 78.0716 8.82723 76.3027 8.87449C72.7513 8.96902 69.2742 12.939 69.8886 15.3358C69.9561 15.5856 70.287 15.7409 70.5098 15.5856C76.5593 11.4941 84.0131 14.4311 90.5285 15.3966C93.6072 15.8557 96.9831 15.93 99.9673 14.8295C103.228 13.6412 103.127 9.59017 103.093 9.13781Z" fill="#C6DBDB"/>
<path d="M106.577 8.34109C104.113 8.37485 101.648 8.40861 99.1773 8.43562C98.8803 8.43562 98.8397 8.75295 99.0153 9.03652C99.3259 9.53614 100.413 11.7034 102.931 11.7034C104.646 11.7034 106.618 10.5624 106.874 8.73944C106.908 8.54364 106.807 8.34109 106.577 8.34109Z" fill="#0A051C"/>
<path d="M91.1834 18.1715C87.9561 19.2045 84.8369 18.4214 81.6163 17.7732C79.0372 17.2533 76.161 16.8415 73.7169 18.077C73.6021 18.1378 73.6831 18.3268 73.8047 18.2863C76.8902 17.4086 79.8677 17.9757 82.9329 18.6239C85.6471 19.1978 88.6583 19.7717 91.3185 18.6847C91.6426 18.5699 91.521 18.0635 91.1834 18.1715Z" fill="#29136D"/>
<path d="M79.4827 20.2105C78.6319 19.8797 77.5719 19.9472 76.6672 20.0012C75.8705 20.0485 74.9658 20.0687 74.2501 20.4401C74.1961 20.4671 74.2029 20.5684 74.2704 20.5751C75.0536 20.7169 75.8773 20.5616 76.674 20.5684C77.5787 20.5751 78.5374 20.7642 79.4286 20.6561C79.6717 20.6224 79.7257 20.305 79.4827 20.2105Z" fill="#29136D"/>
<path d="M106.118 8.22634C104.849 8.22634 103.863 8.17233 102.749 8.15882C101.75 8.14532 100.831 8.15882 99.6702 8.2466C99.3596 8.26685 99.5352 8.77322 99.6499 8.99603C100.406 10.3869 101.574 10.873 103.06 10.7852C104.579 10.6974 105.909 10.2181 106.422 8.82049C106.489 8.63819 106.611 8.22634 106.118 8.22634Z" fill="#0F082B"/>
<path d="M178.32 76.6612C177.827 75.6552 176.855 74.3251 175.667 74.2036C175.491 74.1833 175.343 74.3318 175.295 74.5006C175.174 74.6357 175.106 74.8315 175.167 75.061C175.815 77.8022 175.1 80.4556 174.519 83.1293C173.891 82.8862 173.223 82.7174 172.588 82.5014C171.825 82.2448 171.076 81.8937 170.387 81.4549C168.827 80.4489 167.95 78.6664 168.031 76.8097C168.085 75.7024 169.165 67.9043 164.155 62.8878C163.46 62.1924 161.569 60.9973 160.631 60.9973C159.294 60.9973 158.106 62.0911 158.396 63.4819C158.68 64.8255 160.084 65.737 160.786 66.8578C161.63 68.2013 162.136 69.7205 162.393 71.2801C162.677 73.0153 162.609 74.7977 162.42 76.5396C162.231 78.2748 161.988 80.0843 161.542 81.7789C161.34 82.5554 160.361 84.0407 159.47 84.0137C159.166 84.007 157.977 84.2433 157.106 82.7579C156.985 83.2778 154.291 91.2245 154.291 92.7369C155.911 96.4165 157.052 98.3003 157.208 98.9552C158.045 102.48 155.581 105.167 156.195 108.684C156.634 111.216 163.561 115.22 168.159 111.149C170.664 108.934 172.298 101.939 172.993 100.522C177.503 91.3933 178.003 87.187 178.307 86.046C178.712 84.4998 178.982 82.2043 179.043 80.6109C179.103 79.2403 178.921 77.8832 178.32 76.6612Z" fill="#F7D5BF"/>
<path d="M176.403 80.1788C176.572 78.7677 176.815 77.2823 176.585 75.8645C176.16 73.2246 175.856 71.091 173.635 69.4166C171.974 68.1676 171.164 68.9103 171.11 69.0183C170.914 69.1938 170.812 69.4774 170.954 69.7947C172.224 72.6507 172.548 75.824 171.751 78.7744C171.434 79.956 170.907 81.2185 171.528 82.4406C172.102 83.5681 173.392 84.007 174.519 83.5073C175.849 82.9267 176.241 81.5021 176.403 80.1788Z" fill="#E2B7A3"/>
<path d="M173.101 78.8555C173.527 76.3979 173.439 73.5149 172.588 71.1046C171.785 68.8157 170.428 66.5269 168.213 65.5952C167.457 65.2779 166.296 65.7302 166.633 66.4662C167.848 69.1263 167.936 71.9283 167.909 74.7032C167.896 76.2021 167.842 77.6942 167.929 79.1998C167.997 80.2936 168.172 81.5426 169.226 82.1975C171.461 83.5884 172.824 80.4421 173.101 78.8555Z" fill="#EDC4AE"/>
<path d="M156.465 93.6214C158.72 93.2838 159.99 91.0692 160.037 88.9492C160.091 86.6469 158.592 85.2898 157.485 83.4129C155.5 80.064 155.614 77.9778 155.864 77.1946C156.114 76.4114 156.303 74.1226 155.911 73.0018C155.574 72.0295 154.534 71.6109 153.596 71.9688C152.731 72.2929 151.665 73.2111 151.05 76.1953C149.781 82.3798 151.813 88.1053 154.055 92.3656C154.494 93.196 155.371 93.7226 156.303 93.6416C156.357 93.6349 156.411 93.6281 156.465 93.6214Z" fill="#EEC19A"/>
<path d="M155.338 73.1233C155.216 72.8532 154.804 72.1848 153.906 72.0025C153.771 71.9755 153.407 71.9823 153.258 72.0025C152.954 72.043 152.718 72.2928 152.461 72.6169C152.313 72.7992 152.185 72.995 152.07 73.1976C151.698 73.7242 151.455 74.3386 151.354 74.9935C151.273 75.5066 151.246 76.121 151.577 76.5599C151.888 76.9785 152.414 77.0258 152.887 76.884C154.008 76.5329 154.858 75.3784 155.23 74.3116C155.344 73.9673 155.506 73.5081 155.338 73.1233Z" fill="#EDCEC3"/>
<path d="M152.293 74.3724C152.009 74.3116 151.516 74.2441 151.435 74.5749C151.3 75.1353 151.246 75.4189 151.287 75.7835C151.341 76.3168 151.422 76.6612 151.962 76.8705C152.407 77.046 152.948 76.911 153.346 76.7152C153.663 76.5599 154.082 76.2696 154.17 75.8847C154.352 75.0205 152.968 74.5209 152.293 74.3724Z" fill="white"/>
<path d="M154.419 72.1376C153.953 71.9215 153.211 71.8203 152.812 72.2186C152.765 72.2591 152.711 72.3199 152.711 72.3199C152.711 72.3199 153.4 72.0768 154.183 72.4279C155.128 72.8533 155.27 74.1833 155.27 74.1833C155.27 74.1833 155.419 73.785 155.412 73.4339C155.405 72.806 154.993 72.4009 154.419 72.1376Z" fill="white"/>
<path d="M153.521 76.965C153.103 77.1203 152.718 77.3431 152.259 77.3431C151.719 77.3431 151.3 77.0595 151.138 76.5396C151.118 76.4856 151.037 76.4924 151.037 76.5531C150.983 77.9305 152.88 77.6537 153.602 77.1743C153.71 77.1068 153.65 76.9177 153.521 76.965Z" fill="#D3A484"/>
<path d="M153.38 80.8135C152.684 80.6649 151.503 80.3003 150.922 80.9012C150.875 80.9485 150.922 81.0228 150.983 81.0093C151.341 80.9282 151.658 80.8472 152.036 80.881C152.461 80.9147 152.88 81.0228 153.305 81.0835C153.481 81.1038 153.562 80.854 153.38 80.8135Z" fill="#D3A484"/>
<path d="M152.482 81.4346C152.286 81.3334 152.029 81.3401 151.813 81.3536C151.624 81.3671 151.388 81.3806 151.253 81.5359C151.219 81.5697 151.233 81.6169 151.28 81.6372C151.449 81.7047 151.638 81.6507 151.813 81.6439C152.016 81.6372 152.218 81.6912 152.414 81.6709C152.536 81.6574 152.61 81.4954 152.482 81.4346Z" fill="#D3A484"/>
<path d="M164.162 62.8878C163.791 62.4422 163.183 62.0776 162.697 61.767C162.137 61.4092 161.563 61.0716 160.941 60.8488C160.739 60.7745 159.875 61.3282 159.719 61.7063C159.544 62.1316 159.902 62.53 160.172 62.8135C160.901 63.5697 161.914 64.0221 162.96 64.0694C163.359 64.0896 163.851 64.0761 164.142 63.752C164.378 63.4955 164.385 63.1511 164.162 62.8878Z" fill="#EDCEC3"/>
<path d="M160.928 60.8421C160.611 60.8015 160.334 61.0446 160.111 61.2404C159.821 61.497 159.672 61.6995 159.645 61.8616C159.611 62.0776 159.76 62.2802 159.76 62.2802C159.76 62.2802 160.104 61.7063 160.374 61.4632C160.597 61.2607 161.097 60.9096 161.097 60.9096C161.097 60.9096 160.975 60.8488 160.928 60.8421Z" fill="white"/>
<path d="M164.284 63.0836C164.189 62.7662 163.852 62.5434 163.608 62.3476C163.311 62.1046 162.987 61.9628 162.643 61.7332C162.602 61.7062 162.528 61.6657 162.528 61.6657C162.528 61.6657 161.772 62.5772 161.948 63.9005C161.948 63.9005 162.832 64.1841 163.554 64.0896C164.047 64.0153 164.452 63.6507 164.284 63.0836Z" fill="white"/>
<path d="M164.513 63.7858C164.148 64.9605 162.947 64.5082 162.076 64.4272C162.022 64.4204 162.001 64.5082 162.049 64.5352C162.872 64.974 164.513 65.0483 164.716 63.8398C164.729 63.7115 164.554 63.6575 164.513 63.7858Z" fill="#E2B28F"/>
<path d="M167.599 70.3281C166.957 70.2134 166.14 70.4429 165.593 70.7872C165.526 70.8278 165.566 70.956 165.654 70.9223C165.944 70.8075 166.228 70.686 166.539 70.6117C166.883 70.5307 167.227 70.5374 167.578 70.4969C167.659 70.4834 167.7 70.3484 167.599 70.3281Z" fill="#E2B28F"/>
<path d="M167.383 71.0708C167.018 71.0438 166.62 71.1046 166.302 71.3004C166.241 71.3341 166.282 71.4286 166.349 71.4084C166.701 71.3274 167.025 71.2598 167.383 71.2801C167.518 71.2936 167.518 71.0843 167.383 71.0708Z" fill="#E2B28F"/>
<path d="M172.223 71.2328C171.71 71.0033 171.089 71.0438 170.583 71.2801C170.522 71.3071 170.562 71.4084 170.63 71.3881C171.163 71.2463 171.623 71.2733 172.149 71.4016C172.25 71.4219 172.318 71.2801 172.223 71.2328Z" fill="#E2B28F"/>
<path d="M172.413 71.8945C172.095 71.746 171.677 71.7595 171.346 71.8607C171.258 71.8877 171.265 72.043 171.366 72.0295C171.535 72.0093 171.697 71.989 171.866 72.0025C172.034 72.016 172.196 72.0565 172.359 72.0768C172.46 72.0835 172.5 71.935 172.413 71.8945Z" fill="#E2B28F"/>
<path d="M175.728 72.6169C175.268 72.4008 174.6 72.2658 174.1 72.3671C174.04 72.3806 174.046 72.4684 174.1 72.4819C174.357 72.5494 174.62 72.5494 174.884 72.5966C175.147 72.6439 175.397 72.7317 175.66 72.7857C175.755 72.8059 175.829 72.6642 175.728 72.6169Z" fill="#D3A484"/>
<path d="M175.613 73.1638C175.295 73.0895 174.911 73.076 174.593 73.103C174.533 73.1098 174.512 73.1976 174.58 73.2178C174.89 73.3056 175.268 73.3731 175.593 73.3664C175.701 73.3596 175.728 73.1908 175.613 73.1638Z" fill="#D3A484"/>
<path d="M82.8786 133.733C83.9589 132.376 87.9221 127.825 89.5223 127.056C90.3932 126.637 80.4751 106.159 79.9079 106.105C77.0992 105.855 74.223 107.185 71.8262 108.522C69.0377 110.075 58.8832 116.138 55.5074 128.284C54.1571 133.139 56.7362 138.358 60.902 141.329C62.7722 142.659 66.5936 143.995 68.9027 144.016C71.6506 144.036 74.169 142.888 76.2823 141.194C78.9087 139.107 80.8194 136.326 82.8786 133.733Z" fill="#FFBB0B"/>
<path d="M92.0341 124.497C92.9388 122.762 92.6282 120.561 91.6492 118.684C90.7917 117.029 86.5314 108.981 86.1399 108.522C83.7093 105.653 79.3274 105.295 75.9854 106.942C73.5953 108.124 71.3942 111.027 70.7393 113.383C69.0852 119.325 73.0484 125.26 78.632 127.643C81.3867 128.818 84.4992 129.365 87.3282 128.392C89.2861 127.724 91.0686 126.347 92.0341 124.497Z" fill="#D1940D"/>
<path d="M91.2982 120.047C91.3859 117.887 90.407 115.834 89.2929 114.045C87.9966 111.966 86.3965 109.96 84.1144 108.914C82.0011 107.942 79.3275 107.881 77.437 109.38C76.5458 110.082 74.9592 111.54 74.6081 115.011C74.3785 117.306 75.5736 119.527 76.8699 121.344C78.1864 123.187 80.0161 124.787 82.1902 125.503C86.0926 126.779 91.1091 124.53 91.2982 120.047Z" fill="#91650C"/>
<path d="M100.608 116.017C101.115 114.2 101.689 112.404 102.317 110.629C102.951 108.853 103.687 107.118 104.389 105.369C104.443 105.234 104.335 105.14 104.221 105.14C104.214 105.126 104.2 105.113 104.194 105.099C104.396 105.025 104.592 104.951 104.788 104.876C104.876 104.843 104.828 104.687 104.734 104.714C103.424 105.119 102.141 105.477 100.973 106.24C100.028 106.855 99.2177 107.692 98.7518 108.732C98.2792 109.771 98.3129 110.865 98.664 111.939C99.1164 113.329 99.724 114.68 100.264 116.037C100.318 116.192 100.568 116.172 100.608 116.017Z" fill="#E2B7A3"/>
<path d="M123.888 105.43C124.449 102.473 121.093 99.6573 118.17 98.5568C114.875 97.3213 111.857 96.8824 108.38 97.139C101.101 97.6791 94.0527 100.603 88.0438 104.66C87.8615 104.782 84.3371 107.239 82.8585 108.509C81.5217 109.657 80.2456 110.879 79.037 112.161C78.1323 113.127 76.836 114.261 76.3364 115.503C75.2156 118.305 75.5262 120.554 78.4767 123.2C82.0618 126.421 84.9583 126.144 85.9643 125.368C86.8555 124.672 87.902 122.87 88.8607 122.356C90.3056 121.58 91.3926 120.743 92.9387 121.31C93.4046 121.479 93.8704 121.654 94.3363 121.823C95.8622 122.383 99.157 122.539 100.534 121.418C103.593 118.92 98.2793 114.146 99.2245 110.926C99.8389 108.833 103.768 102.871 111.296 104.127C115.26 104.789 120.472 106.72 122.957 106.213C123.071 106.193 123.747 106.173 123.888 105.43Z" fill="#F7D5BF"/>
<path d="M124.293 104.505C124.28 104.005 124.016 103.54 123.746 103.128C122.747 101.622 122.072 100.987 121.788 100.805C121.755 100.785 120.951 100.211 120.911 100.245C119.959 100.96 120.553 102.392 121.032 103.202C121.539 104.066 122.45 105.207 123.571 105.072C123.969 105.018 124.313 104.964 124.293 104.505Z" fill="#EDCEC3"/>
<path d="M122.308 101.264C122.072 101.021 121.242 100.211 121.032 100.204C120.641 100.191 120.452 100.859 120.411 101.156C120.364 101.494 120.384 102.162 120.843 102.209C121.363 102.257 122.018 101.804 122.383 101.48C122.47 101.399 122.376 101.332 122.308 101.264Z" fill="white"/>
<path d="M124.226 104.856C124.327 104.768 124.294 104.411 124.294 104.411C124.294 104.411 123.895 104.64 123.686 104.681C123.497 104.714 123.301 104.721 123.105 104.687C122.943 104.66 122.781 104.613 122.633 104.532C122.477 104.451 122.349 104.323 122.18 104.255C122.126 104.235 122.045 104.275 122.072 104.343C122.329 105.045 123.693 105.329 124.226 104.856Z" fill="white"/>
<path d="M92.3716 114.97C94.0055 113.377 96.5373 113.708 98.2522 114.95C100.116 116.3 100.291 118.312 101.115 120.331C102.58 123.936 104.308 125.111 105.085 125.381C105.855 125.658 107.792 126.894 108.454 127.879C109.028 128.737 108.731 129.817 107.873 130.35C107.09 130.843 105.713 131.134 102.972 129.817C97.28 127.083 93.9514 122.005 91.9192 117.637C91.5208 116.786 91.6356 115.767 92.2635 115.071C92.2905 115.044 92.331 115.004 92.3716 114.97Z" fill="#EEC19A"/>
<path d="M106.996 127.643C105.929 127.292 104.491 127.272 103.532 127.954C103.134 128.237 102.857 128.689 102.999 129.189C103.147 129.716 103.653 130.067 104.113 130.317C104.693 130.634 105.335 130.809 105.976 130.83C106.206 130.863 106.442 130.877 106.678 130.87C107.09 130.863 107.434 130.823 107.65 130.607C107.758 130.499 107.981 130.215 108.042 130.094C108.44 129.263 108.164 128.534 108.015 128.271C107.806 127.9 107.34 127.758 106.996 127.643Z" fill="#EDCEC3"/>
<path d="M105.098 127.528C104.741 127.359 104.254 127.521 103.937 127.677C103.539 127.879 103.107 128.224 102.972 128.683C102.81 129.243 103.107 129.574 103.498 129.945C103.768 130.195 104.187 130.479 104.511 130.479C104.855 130.479 104.957 130.141 105.098 129.891C105.409 129.344 105.902 127.9 105.098 127.528Z" fill="white"/>
<path d="M108.238 129.594C108.13 130.101 107.772 130.688 107.212 130.823C107.151 130.836 107.002 130.857 107.002 130.857C107.002 130.857 107.644 130.411 107.786 129.486C107.907 128.716 107.293 127.751 107.293 127.751C107.293 127.751 107.671 127.873 107.792 127.994C108.231 128.433 108.373 128.98 108.238 129.594Z" fill="white"/>
<path d="M103.849 127.386C103.471 127.623 103.066 127.798 102.789 128.163C102.459 128.595 102.432 129.101 102.749 129.54C102.783 129.587 102.722 129.648 102.675 129.614C101.547 128.825 102.911 127.481 103.735 127.197C103.849 127.15 103.964 127.312 103.849 127.386Z" fill="#D3A484"/>
<path d="M100.703 125.172C100.399 125.82 99.9739 126.975 99.1501 127.076C99.0826 127.083 99.0556 127.002 99.1029 126.961C99.3865 126.725 99.6363 126.515 99.8388 126.198C100.068 125.834 100.237 125.442 100.446 125.064C100.527 124.915 100.777 125.003 100.703 125.172Z" fill="#D3A484"/>
<path d="M99.6632 125.51C99.6227 125.726 99.4674 125.928 99.3257 126.09C99.1974 126.232 99.0421 126.414 98.8395 126.428C98.7923 126.428 98.7653 126.387 98.772 126.347C98.8193 126.171 98.9813 126.056 99.0894 125.915C99.2176 125.759 99.2986 125.564 99.4337 125.422C99.5147 125.334 99.6902 125.374 99.6632 125.51Z" fill="#D3A484"/>
<path d="M127.426 111.588C126.488 107.314 123.348 104.066 119.5 102.5C119.473 102.473 119.432 102.446 119.385 102.432C118.271 102.047 116.664 101.487 116.455 100.278C116.38 99.8599 116.441 99.421 116.448 98.9957C116.468 98.1652 116.63 97.2875 116.563 96.4638C116.468 95.2688 115.692 94.7421 114.551 94.6003C113.545 94.4788 112.694 94.6679 112.437 95.7414C112.113 97.1052 112.424 98.6851 112.005 100.096C111.674 101.217 110.581 101.676 109.534 102.162C107.326 102.797 105.281 103.951 103.66 105.612C99.2177 110.163 98.61 117.293 102.114 122.559C105.814 128.122 113.119 130.141 119.223 127.488C125.191 124.882 128.83 117.981 127.426 111.588ZM104.356 122.924C100.656 118.657 100.372 112.418 103.714 107.854C105.173 105.869 107.185 104.451 109.467 103.675C109.575 103.722 109.703 103.742 109.852 103.708C111.985 103.229 114.132 102.972 116.252 103.269C116.752 103.357 117.245 103.459 117.744 103.573C118.102 103.675 118.46 103.789 118.811 103.924C121.721 105.045 124.179 107.334 125.326 110.251C127.453 115.632 124.989 122.046 120.229 125.125C115.206 128.372 108.278 127.447 104.356 122.924Z" fill="#FFBB0B"/>
<path d="M126.278 115.011C126.319 111.149 124.685 107.415 121.674 104.978C120.047 103.668 116.995 102.615 114.747 102.621C109.406 102.635 103.606 105.281 101.777 110.386C100.339 114.396 101.642 119.622 104.214 122.93C105.915 125.118 110.169 126.954 112.107 127.17C119.702 128.014 126.197 122.822 126.278 115.011Z" fill="#F4E6ED"/>
<path d="M117.663 121.823C121.654 119.433 122.943 113.755 120.526 109.771C118.278 106.071 113.477 105.477 110.014 107.401C109.46 107.651 108.933 107.962 108.468 108.333C105.092 111.02 104.302 115.868 106.726 119.446C109.156 123.045 113.963 124.038 117.663 121.823Z" fill="#470627"/>
<path d="M121.249 113.694C120.891 111.432 120.344 109.434 118.642 108.293C116.921 106.99 114.105 106.801 112.289 107.381C111.85 107.523 111.736 108.252 112.147 108.495C114.659 109.974 116.003 112.432 116.07 115.321C116.111 117.009 116.779 119.892 119.162 119.116C121.276 118.427 121.519 115.416 121.249 113.694Z" fill="#33031D"/>
<path d="M120.29 102.365C120.074 101.946 119.804 101.629 119.878 101.116C119.932 100.697 120.195 100.414 120.411 100.076C120.445 100.022 120.378 99.9612 120.324 99.9814C119.345 100.285 119.257 102.074 120.148 102.534C120.249 102.581 120.337 102.459 120.29 102.365Z" fill="#E2B28F"/>
<path d="M110.027 100.035C110.115 99.5628 110.014 99.0429 109.919 98.5771C109.831 98.1652 109.737 97.6791 109.48 97.3348C109.426 97.2673 109.332 97.328 109.345 97.4023C109.372 97.8412 109.548 98.28 109.622 98.7189C109.696 99.1577 109.696 99.6168 109.798 100.049C109.825 100.184 110 100.164 110.027 100.035Z" fill="#E2B28F"/>
<path d="M110.554 99.7316C110.648 99.3603 110.641 98.9755 110.614 98.5974C110.594 98.2868 110.608 97.7737 110.365 97.5441C110.344 97.5306 110.311 97.5239 110.297 97.5509C110.155 97.8344 110.277 98.2598 110.29 98.5636C110.304 98.9485 110.277 99.34 110.304 99.7249C110.317 99.8464 110.527 99.8532 110.554 99.7316Z" fill="#E2B28F"/>
<path d="M188.151 86.1878C187.408 87.3288 186.773 89.3813 187.496 90.5088C187.941 91.2043 187.989 91.157 188.617 91.6836C189.353 92.298 197.319 97.6994 200.648 99.6303C201.431 100.083 203.315 101.089 204.247 101.035C205.131 100.981 205.982 100.143 206.576 99.4075C206.806 99.1172 221.011 78.8015 224.657 72.3941C225.055 71.6987 224.731 70.5577 224.083 70.1256C221.47 68.3837 189.123 86.8359 188.151 86.1878Z" fill="#171919"/>
<path d="M214.955 63.671C214.273 63.2119 208.075 59.512 207.204 59.62C206.839 59.6673 206.373 60.1129 205.833 60.7948C205.685 60.9771 205.178 61.659 204.922 62.1181C204.787 62.3612 189.136 84.6417 188.995 84.8577C188.252 86.0055 186.942 87.8284 187.766 88.8547C188.286 89.4961 188.839 89.9282 189.467 90.4481C190.203 91.0625 198.17 96.4638 201.499 98.3948C202.282 98.8472 203.166 99.5493 204.098 99.6236C204.773 99.6776 205.307 99.2252 205.692 98.6784C207.751 95.7616 223.901 72.3536 224.205 71.746C224.569 71.0236 224.306 70.1863 223.705 69.7002C223.232 69.3154 220.113 67.1616 214.955 63.671Z" fill="#2F3333"/>
<path d="M214.077 65.3319C213.51 64.9471 208.372 61.9628 207.643 62.0506C207.339 62.0911 206.954 62.4625 206.495 63.0296C206.373 63.1849 205.948 63.752 205.732 64.1369C205.617 64.3394 192.539 82.8255 192.425 83.0078C191.803 83.9665 190.716 85.4856 191.398 86.3431C191.83 86.8832 192.296 87.2343 192.816 87.6732C193.43 88.1863 200.074 92.6896 202.849 94.3033C203.504 94.6814 204.24 95.2688 205.016 95.3295C205.577 95.37 206.022 94.992 206.346 94.5396C208.061 92.1022 221.538 72.5899 221.787 72.0836C222.091 71.4827 221.869 70.7805 221.376 70.3754C220.984 70.0378 218.378 68.2351 214.077 65.3319Z" fill="#FFBB0B"/>
<path d="M213.476 79.2673C213.577 78.7002 214.509 77.1001 213.409 74.1833C213.213 73.6635 212.747 72.9815 212.43 72.5427C211.937 71.8608 211.289 71.3544 210.492 70.9155C208.21 69.6665 205.55 70.3214 203.517 71.7392C201.256 73.3191 200.175 75.7497 201.181 78.3964C201.505 79.2538 201.951 80.1315 202.511 80.908C203.558 82.4946 205.307 83.6559 207.231 83.4939C209.877 83.4534 212.976 82.0625 213.476 79.2673Z" fill="white"/>
<path d="M198.238 93.088C198.251 92.6086 198.035 92.136 197.63 91.8659C197.434 91.7309 197.191 91.6499 196.955 91.6296C196.543 91.6026 196.07 91.7917 195.854 92.1562C195.854 92.163 195.848 92.163 195.848 92.1698C195.665 92.3858 195.544 92.6626 195.524 92.9394C195.483 93.4053 195.706 93.9117 196.104 94.1615C196.516 94.4248 197.022 94.4653 197.468 94.256C197.907 94.0467 198.217 93.5808 198.238 93.088Z" fill="#171919"/>
<path d="M213.524 79.8142C213.233 78.9973 212.835 78.2208 212.45 77.4511C212.058 76.6747 211.653 75.905 211.248 75.1353C210.863 74.3994 210.492 73.623 209.945 72.9883C209.803 72.8263 209.587 73.0221 209.702 73.1909C210.465 74.3656 211.079 75.6282 211.721 76.8705C212.031 77.4714 212.342 78.0791 212.632 78.7002C212.774 79.0108 212.909 79.3214 213.044 79.6319C213.213 80.037 213.625 80.6582 213.206 81.0565C213.125 81.1308 213.206 81.2861 213.314 81.2321C213.861 80.935 213.692 80.2936 213.524 79.8142Z" fill="#0E0928"/>
<path d="M209.23 72.7317C208.129 72.6912 207.015 72.6237 205.922 72.5764C204.828 72.5291 203.741 72.4751 202.647 72.4279C202.141 72.4076 201.169 72.2456 201.155 73.0085C201.155 73.1233 201.337 73.1773 201.364 73.049C201.479 72.5089 203.14 72.8127 203.518 72.833C204.214 72.8667 204.909 72.8937 205.604 72.9275C206.266 72.9545 206.928 72.9883 207.589 73.0153C207.954 73.0288 208.319 73.049 208.683 73.0625C208.771 73.0693 209.817 73.1908 209.709 73.2921C209.541 73.4474 209.763 73.7174 209.939 73.5621C210.452 73.1098 209.723 72.752 209.23 72.7317Z" fill="#170D3F"/>
<path d="M213.483 80.6649C213.078 79.3416 210.188 73.7917 209.884 73.2854C209.776 73.1098 209.533 73.0018 209.263 72.9883C208.318 72.941 207.373 72.9073 206.421 72.8668C206.279 72.86 202.12 72.7182 201.553 72.698C201.012 72.6777 200.925 73.2111 201.195 73.7175C202.451 76.0873 204.294 77.9305 206.198 79.1998C208.075 80.4489 209.445 81.0025 212.477 81.3198C212.997 81.3739 213.652 81.2186 213.483 80.6649Z" fill="#29136D"/>
<path d="M202.268 75.0611C202.187 75.1758 201.418 76.2291 201.485 76.5802C201.532 76.8232 202.559 78.0926 205.239 79.929C207.825 81.7047 209.614 82.2516 209.823 82.1368C209.958 82.0625 210.033 81.968 210.127 81.8667C210.242 81.7452 211.167 80.3679 211.471 79.7805C211.545 79.6387 211.673 79.4969 211.64 79.3079C211.619 79.1728 210.546 77.2959 208.163 75.662C205.867 74.0888 203.639 73.6972 203.308 73.758C203.2 73.7715 202.862 74.1698 202.268 75.0611Z" fill="#170D3F"/>
<path d="M209.574 81.1106C208.899 80.3746 207.791 79.2471 206.124 78.0993C204.787 77.1811 202.755 76.1818 202.451 76.2359C202.194 76.2764 202.133 76.3979 202.208 76.5059C203.403 78.3086 206.623 80.6582 209.405 81.3604C209.54 81.4009 209.689 81.2388 209.574 81.1106Z" fill="#0E0928"/>
<path d="M206.988 84.1285C207.035 83.9935 207.042 83.8585 207.001 83.7234C207.035 83.7167 207.069 83.7032 207.102 83.6762C207.177 83.6221 207.197 83.5411 207.197 83.4736C208.25 81.9342 209.297 80.3949 210.35 78.8622C210.856 78.1195 211.43 77.3971 211.869 76.6139C212.051 76.2966 212.213 75.8645 211.869 75.6282C211.788 75.5742 211.653 75.5944 211.592 75.6484C211.518 75.7092 211.565 75.8037 211.64 75.797C212.045 75.7767 211.599 76.4856 211.552 76.5667C211.464 76.7152 211.356 76.8502 211.255 76.992C211.045 77.2958 210.829 77.6064 210.634 77.917C210.627 77.9237 210.627 77.9305 210.627 77.9373C210.262 78.4639 209.898 78.9838 209.54 79.5104C208.682 80.7527 207.811 81.995 206.954 83.2373C206.927 83.2373 206.9 83.2441 206.873 83.2576C206.859 83.2643 206.853 83.2711 206.839 83.2778C206.819 83.2778 206.799 83.2913 206.778 83.3048C206.711 83.3656 206.697 83.4399 206.704 83.5074C206.596 83.6086 206.502 83.7234 206.394 83.8382C206.299 83.9395 206.427 84.1083 206.535 84.007C206.549 83.9935 206.562 83.98 206.576 83.9665C206.556 84.0205 206.535 84.0678 206.515 84.1218C206.454 84.2838 206.691 84.3581 206.765 84.2095C206.772 84.2028 206.772 84.196 206.772 84.1825C206.846 84.2366 206.954 84.2298 206.988 84.1285Z" fill="#FFC866"/>
<path d="M55.2576 44.4625C54.6162 43.9089 39.7558 75.4526 39.4182 75.7294C39.8436 76.2021 41.1331 79.6184 42.2134 80.3273C44.0701 76.7354 54.1098 56.4602 55.9058 52.3484C57.695 48.2434 57.0265 45.9816 55.2576 44.4625Z" fill="#EFE1E5"/>
<path d="M4.92393 45.32C4.45806 46.272 0.184261 55.1369 0.481335 56.2239C0.602865 56.683 1.26453 57.1894 2.22326 57.7565C2.48658 57.9118 3.43856 58.4317 4.07997 58.6815C4.41755 58.8098 36.3124 74.3656 36.6162 74.5074C38.2096 75.2433 40.7753 76.5802 41.923 75.3446C42.6522 74.5682 53.1781 53.6988 55.0348 49.1144C55.4736 48.0341 56.2028 46.7851 56.1218 45.5833C56.0678 44.7191 55.3926 44.1182 54.6297 43.7266C50.5382 41.6403 19.0619 26.6719 18.2315 26.3951C17.2457 26.0642 16.2262 26.5503 15.7131 27.4011C15.3147 28.0627 8.42804 38.1227 4.92393 45.32Z" fill="#29136D"/>
<path d="M42.7806 80.7054C42.7874 80.172 41.6126 79.5576 41.4843 78.0993C41.3965 77.0865 41.7881 76.2088 42.2135 75.5674C42.6253 74.953 42.4025 74.1158 41.7409 73.7782C35.158 70.4564 7.52343 56.5142 1.95331 53.5908C1.41318 53.3072 0.738015 53.5638 0.528713 54.1376C-1.1457 58.7625 1.4942 60.9231 3.74926 62.0979C4.01932 62.2396 4.96456 62.773 5.60596 63.0161C5.90304 63.1309 34.2128 77.8225 41.4438 81.1105C41.9569 81.3536 42.5173 81.1375 42.7806 80.7054Z" fill="#170D42"/>
<path d="M23.4033 35.8204C21.9517 35.0102 20.5 34.2 19.0484 33.4033C18.6906 33.2075 18.245 33.3223 18.0289 33.6734C14.8759 38.7776 11.8917 44.0574 9.44758 49.5398C9.29229 49.8841 9.05598 50.5525 9.94045 51.0049C11.4663 51.7746 12.6141 51.9704 14.14 52.6455C14.5046 52.8076 14.9907 52.6996 15.1662 52.3755C18.0019 47.197 20.8376 42.0252 23.6733 36.8534C23.8624 36.4956 23.7611 36.023 23.4033 35.8204Z" fill="#F4E6ED"/>
<path d="M13.4041 47.9126C13.1543 47.8113 12.8774 47.7505 12.6479 47.9328C12.3778 48.1354 12.3576 48.4122 12.4588 48.6553C12.4048 48.6282 12.3508 48.6012 12.29 48.581C12.155 48.5337 12.0402 48.7363 12.1483 48.8308C12.4183 49.0536 12.7357 49.2089 13.0395 49.3777C13.3365 49.5465 13.6336 49.749 13.9645 49.8435C14.0792 49.8773 14.167 49.722 14.0792 49.641C13.8294 49.3979 13.5053 49.2426 13.2083 49.0739C13.1137 49.0198 13.0192 48.9658 12.9314 48.9051C12.8437 48.7835 12.7762 48.6417 12.7694 48.5C12.7492 48.1421 13.053 48.1624 13.296 48.2704C13.6606 48.4257 13.9915 48.6417 14.329 48.8375C14.5383 48.9591 14.7206 48.6417 14.5113 48.5067C14.167 48.2974 13.7957 48.0679 13.4041 47.9126Z" fill="#2F3333"/>
<path d="M13.4649 46.5488C13.0666 46.6703 13.2421 47.3049 13.4447 47.5548C13.816 48.0139 14.4844 48.2704 15.0111 47.9126C16.0306 47.2172 14.2819 45.9276 13.4649 46.5488ZM14.8963 47.5818C14.6532 47.8653 14.2076 47.7708 13.9375 47.5885C13.6405 47.386 13.5122 47.1429 13.5797 46.8391C13.8565 46.677 14.1266 46.6095 14.4507 46.7716C14.7275 46.9133 15.1596 47.2712 14.8963 47.5818Z" fill="#2F3333"/>
<path d="M15.6052 44.9081C15.504 44.8676 15.4027 45.0094 15.4635 45.0971C15.5715 45.2457 15.747 45.3469 15.8348 45.509C15.9698 45.7453 15.8956 46.0626 15.5647 46.0761C15.4702 46.0829 15.3757 46.0491 15.2879 46.0221C15.2001 46.0019 15.1191 45.9681 15.0381 45.9411C15.0921 45.8398 15.1326 45.7385 15.1596 45.6305C15.2001 45.455 14.9436 45.3402 14.8558 45.509C14.8018 45.6103 14.7613 45.7115 14.714 45.8128C14.471 45.7048 14.2279 45.5968 13.9781 45.509C13.8768 45.4752 13.7958 45.6238 13.8768 45.6913C14.0794 45.8668 14.3292 46.0019 14.579 46.1099C14.5587 46.1707 14.5452 46.2382 14.5587 46.3057C14.5655 46.3529 14.6195 46.3732 14.66 46.3664C14.7478 46.3529 14.8085 46.2922 14.8626 46.2247C14.9301 46.2517 14.9976 46.2719 15.0651 46.2922C15.3419 46.38 15.6795 46.4745 15.9428 46.3124C16.5572 45.9478 16.1116 45.1039 15.6052 44.9081Z" fill="#2F3333"/>
<path d="M16.6517 43.3214C16.5032 43.2877 16.4087 43.497 16.5505 43.578C16.8948 43.7738 16.9556 44.2059 16.6045 44.449C16.3412 44.6245 16.0171 44.5637 15.7605 44.4152C16.0576 43.9898 16.3884 43.2742 15.7133 43.2269C15.0313 43.1864 14.741 43.7265 15.1259 44.2667C15.2136 44.3882 15.3149 44.4962 15.4364 44.5907C15.4432 44.6448 15.4904 44.6853 15.5445 44.665C15.9563 44.9351 16.4829 45.0093 16.888 44.665C17.3404 44.2869 17.2999 43.47 16.6517 43.3214ZM15.3014 43.7738C15.3217 43.5982 15.4499 43.5307 15.612 43.5577C15.7403 43.6523 15.747 43.74 15.7065 43.8548C15.6525 43.9831 15.612 44.1249 15.5512 44.2532C15.3824 44.1046 15.2744 44.0236 15.3014 43.7738Z" fill="#2F3333"/>
<path d="M17.0029 41.7685C16.591 41.9373 16.4695 42.3694 16.5843 42.734C16.294 42.6125 16.0036 42.4977 15.6931 42.4302C15.5985 42.4099 15.5445 42.5382 15.6323 42.5922C16.0576 42.8691 16.591 43.1121 17.0907 43.2877C17.1109 43.2944 17.1312 43.3079 17.1582 43.3147H17.1649C17.2054 43.3282 17.2527 43.3484 17.2932 43.3619C17.624 43.47 17.8063 43.3147 17.9549 43.0108C18.2452 42.3627 17.7928 41.4377 17.0029 41.7685ZM16.8543 42.5045C16.8543 42.2141 17.1447 41.9576 17.4282 42.0454C17.4958 42.0656 17.5498 42.1061 17.597 42.1466C17.7793 42.3087 17.7793 42.5315 17.6645 42.7205C17.5835 42.8555 17.4485 43.0716 17.1379 42.9501C16.9624 42.8556 16.8746 42.707 16.8543 42.5045Z" fill="#2F3333"/>
<path d="M18.002 38.5278C17.6037 38.6493 17.7792 39.2839 17.9818 39.5338C18.3531 39.9929 19.0215 40.2494 19.5482 39.8916C20.5744 39.1962 18.819 37.9066 18.002 38.5278ZM19.4334 39.5608C19.1903 39.8443 18.7447 39.7498 18.4746 39.5675C18.1776 39.365 18.0493 39.1219 18.1168 38.8181C18.3936 38.656 18.6637 38.5885 18.9878 38.7506C19.2713 38.8923 19.7034 39.2502 19.4334 39.5608Z" fill="#2F3333"/>
<path d="M17.1041 40.1144C16.7057 40.2359 16.8813 40.8706 17.0838 41.1204C17.4552 41.5795 18.1236 41.8361 18.6502 41.4782C19.6765 40.7828 17.921 39.4932 17.1041 40.1144ZM18.5354 41.1474C18.2924 41.431 17.8468 41.3364 17.5767 41.1542C17.2796 40.9516 17.1513 40.7085 17.2189 40.4047C17.4957 40.2427 17.7657 40.1752 18.0898 40.3372C18.3666 40.4857 18.7987 40.8368 18.5354 41.1474Z" fill="#2F3333"/>
<path d="M20.7635 37.4813C20.3989 37.569 20.0411 37.7176 19.7507 37.9539C19.5955 37.7041 19.4334 37.4475 19.1769 37.299C19.1161 37.2652 19.0486 37.3327 19.0823 37.4002C19.1971 37.623 19.3659 37.8188 19.4942 38.0349C19.4199 38.0011 19.3524 37.9674 19.2781 37.9336C19.0013 37.8121 18.738 37.65 18.4342 37.6298C18.3464 37.623 18.3059 37.7446 18.3667 37.7986C18.5895 38.0146 18.9068 38.1159 19.1904 38.2442C19.5144 38.3927 19.8385 38.5345 20.1626 38.6763C20.3381 38.7506 20.4934 38.494 20.3111 38.4062C20.1761 38.3455 20.0478 38.2847 19.9128 38.2239C20.2099 38.0416 20.5002 37.8796 20.8513 37.7986C21.0606 37.7513 20.9728 37.434 20.7635 37.4813Z" fill="#2F3333"/>
<path d="M200.675 26.2938C200.236 22.1753 197.785 19.4948 196.496 18.3741C196.084 17.7462 195.517 17.2128 194.835 16.7874C193.403 15.903 191.689 15.7274 190.055 15.5384C186.611 15.1333 183.067 14.9375 179.934 16.6929C173.803 20.1228 173.918 27.8534 176.362 33.5991C177.024 35.1519 177.881 36.5023 179.022 37.7446C179.603 38.3792 180.224 38.9396 180.926 39.4325C181.122 39.5675 181.311 39.7296 181.507 39.8781C185.133 43.0109 190.446 41.8834 193.687 40.0942C200.034 36.5833 201.262 31.8301 200.675 26.2938Z" fill="#FFBB0B"/>
<path d="M199.014 28.5623C199.217 23.4648 195.78 19.0087 191.027 17.6179C190.25 17.2601 189.44 16.9697 188.576 16.7807C185.754 16.1528 183.067 16.828 180.731 18.4956C178.455 20.1228 176.673 22.3441 176.247 25.1663C175.836 27.8669 176.416 30.7566 177.638 33.1872C179.914 37.7176 185.011 40.7288 190.109 39.6081C195.206 38.4738 198.812 33.6869 199.014 28.5623Z" fill="#2F3333"/>
<path d="M195.55 27.3065C196.847 24.4438 196.475 19.7042 196.212 18.1108C195.26 12.3516 191.337 5.18809 180.92 0.320141C179.893 -0.159227 178.415 -0.186233 177.611 0.840019C177.253 1.29238 177.105 1.85952 176.97 2.4064C176.794 3.12208 176.659 3.85126 176.558 4.58044C176.382 5.90377 176.315 7.24059 176.342 8.57067C176.443 13.6142 177.611 19.1303 180.859 23.1205C182.682 25.3621 185.126 27.131 187.962 27.8197C188.11 27.8534 189.406 28.4341 189.893 28.6839C190.669 29.089 191.459 29.6021 192.296 29.8722C194.031 30.4326 194.956 28.6164 195.55 27.3065Z" fill="#80FFB3"/>
<path d="M192.472 24.2818C192.647 22.4656 191.992 20.6292 191.405 18.921C190.804 17.1655 190.048 15.4641 189.17 13.8302C188.299 12.2031 187.307 10.6434 186.125 9.22559C185.558 8.54367 184.984 7.855 184.343 7.2406C183.755 6.67346 183.053 5.85651 182.216 5.69447C181.946 5.64046 181.757 5.89027 181.818 6.14008C182 6.91652 182.749 7.59169 183.229 8.21284C183.762 8.91502 184.316 9.60369 184.822 10.3261C185.815 11.7575 186.773 13.2091 187.59 14.7417C188.407 16.2676 189.096 17.8475 189.656 19.4814C190.23 21.1423 190.487 22.9315 191.263 24.5114C191.513 25.0042 192.418 24.8287 192.472 24.2818Z" fill="#00C152"/>
<path d="M182.885 11.6089C182.891 11.6022 182.898 11.5954 182.898 11.5954C182.993 11.4941 183.033 11.3456 183.033 11.2106C183.033 11.0418 182.932 10.8865 182.79 10.792C182.668 10.7109 182.54 10.6839 182.392 10.7109C182.209 10.7447 182.095 10.846 182 11.0013C181.993 11.008 181.993 11.0148 181.987 11.0215C181.919 11.1295 181.912 11.3118 181.953 11.4266C181.993 11.5414 182.068 11.6359 182.169 11.7034C182.405 11.852 182.695 11.8115 182.885 11.6089Z" fill="#00C152"/>
<path d="M187.381 17.8407C187.374 17.6449 187.212 17.4424 187.009 17.4086C187.003 17.4086 186.996 17.4086 186.996 17.4086C186.746 17.3681 186.53 17.5099 186.463 17.7529C186.463 17.7597 186.463 17.7664 186.456 17.7664C186.436 17.8407 186.449 17.9285 186.469 18.0027C186.496 18.104 186.571 18.185 186.652 18.2458C186.8 18.3471 187.016 18.3606 187.165 18.2526C187.3 18.158 187.388 18.0027 187.381 17.8407Z" fill="#00C152"/>
<path d="M190.359 11.906C190.467 11.771 190.5 11.5617 190.392 11.4131C190.284 11.2646 190.109 11.1971 189.926 11.2511C189.825 11.2781 189.744 11.3456 189.69 11.4266C189.683 11.4334 189.677 11.4401 189.67 11.4536C189.562 11.5684 189.542 11.7845 189.636 11.9127C189.731 12.0478 189.906 12.122 190.068 12.068C190.082 12.0613 190.088 12.0613 190.102 12.0545C190.203 12.0343 190.291 11.987 190.359 11.906Z" fill="#00C152"/>
<path d="M192.148 28.1505C187.307 21.1558 178.874 21.0747 176.281 21.4798C173.351 21.9457 170.488 22.7762 167.754 23.9172C166.417 24.4776 165.107 25.119 163.845 25.8347C163.244 26.179 162.65 26.5368 162.076 26.9082C161.569 27.2323 160.921 27.5766 160.712 28.1842C160.509 28.7649 160.78 29.3253 161.198 29.7304C161.732 30.2503 162.353 30.7094 162.933 31.1752C164.027 32.0529 165.141 32.9104 166.302 33.6936C170.65 36.6373 176.011 38.6831 181.305 37.4205C181.629 37.3395 181.993 37.245 182.371 37.1167C182.5 37.0762 182.635 37.0424 182.763 37.0222C183.999 36.8129 185.221 36.2592 186.213 35.6786C187.179 35.1182 188.063 34.4363 188.934 33.7476C189.15 33.5721 189.38 33.4033 189.602 33.2345C190.075 32.8834 190.642 32.6944 191.23 32.6809C191.567 32.6741 191.905 32.6336 192.215 32.4851C193.944 31.6749 192.884 29.2105 192.148 28.1505Z" fill="#008435"/>
<path d="M191.81 30.014C191.169 29.5211 190.23 29.2105 189.474 28.9337C188.704 28.6569 187.935 28.3801 187.124 28.2383C185.383 27.9345 183.634 27.8669 181.865 27.9075C178.226 27.9885 174.593 28.272 170.954 28.0627C170.36 28.029 170.259 28.8864 170.799 29.062C174.236 30.1828 177.881 29.8317 181.44 29.7439C183.127 29.7034 184.815 29.7169 186.497 29.8384C187.313 29.8992 188.144 29.9262 188.954 30.0477C189.386 30.1152 189.825 30.203 190.25 30.311C190.676 30.4123 191.081 30.6149 191.506 30.7026C191.945 30.7904 192.148 30.2773 191.81 30.014Z" fill="#01662A"/>
<path d="M178.415 33.0185C178.415 33.0185 178.415 33.0117 178.422 33.0117C178.489 32.8834 178.516 32.7619 178.503 32.6201C178.489 32.4783 178.428 32.3433 178.334 32.242C178.239 32.1407 178.111 32.0867 177.976 32.0665C177.841 32.0462 177.692 32.0597 177.571 32.134C177.355 32.269 177.227 32.4986 177.254 32.7551C177.287 33.0725 177.544 33.302 177.861 33.3223H177.868C178.084 33.3358 178.314 33.2075 178.415 33.0185Z" fill="#01662A"/>
<path d="M175.572 26.2128C175.647 26.1385 175.701 26.0507 175.734 25.9427C175.734 25.9359 175.734 25.9292 175.741 25.9224C175.761 25.8212 175.775 25.7199 175.748 25.6119C175.714 25.4768 175.64 25.3688 175.532 25.281C175.444 25.2135 175.356 25.173 175.255 25.1595C175.12 25.1392 174.998 25.1662 174.87 25.2203C174.863 25.2203 174.857 25.227 174.85 25.227C174.661 25.3148 174.539 25.5443 174.533 25.7469C174.526 25.9427 174.614 26.1182 174.769 26.2398C174.917 26.3545 175.1 26.4018 175.289 26.3613C175.397 26.341 175.491 26.287 175.572 26.2128Z" fill="#01662A"/>
<path d="M184.417 26.017C184.545 25.8887 184.606 25.7132 184.586 25.5376C184.566 25.3553 184.471 25.1933 184.309 25.092C184.14 24.9907 183.897 24.9705 183.728 25.0853C183.641 25.146 183.546 25.2068 183.485 25.2946C183.452 25.3351 183.425 25.3756 183.398 25.4296C183.337 25.5714 183.337 25.7132 183.404 25.8549C183.458 25.963 183.546 26.044 183.654 26.0913C183.674 26.1048 183.695 26.1115 183.715 26.125C183.762 26.1453 183.789 26.1588 183.836 26.1655C184.052 26.206 184.262 26.1723 184.417 26.017Z" fill="#01662A"/>
</svg>
