<?xml version="1.0" encoding="utf-8"?>
<!-- Generator: Adobe Illustrator 24.1.1, SVG Export Plug-In . SVG Version: 6.00 Build 0)  -->
<svg version="1.1" id="e6d15d18-a685-4480-ac2b-bd578043a679"
	 xmlns="http://www.w3.org/2000/svg" xmlns:xlink="http://www.w3.org/1999/xlink" x="0px" y="0px" viewBox="0 0 1041.3 554.2"
	 style="enable-background:new 0 0 1041.3 554.2;" xml:space="preserve">
<style type="text/css">
	.st0{fill:#F2F2F2;}
	.st1{opacity:0.1;enable-background:new    ;}
	.st2{fill:#65617D;}
	.st3{opacity:0.2;enable-background:new    ;}
	.st4{fill:#3F3D56;}
	.st5{fill:#6C63FF;}
	.st6{fill:#FBBEBE;}
	.st7{fill:#FF6584;}
	.st8{fill-rule:evenodd;clip-rule:evenodd;fill:#29136D;}
	.st9{fill-rule:evenodd;clip-rule:evenodd;fill:#FFBB0B;}
</style>
<path class="st0" d="M961.5,438.2c-1.2,2.5-2.3,5-3.5,7.4c-1.8,3.8-3.6,7.5-5.3,11.1c-0.8,1.6-1.6,3.2-2.3,4.8
	c-8.6,17.6-16.6,33.1-23.5,45.9c-12.6,23.6-37.1,38.4-63.8,38.7l-151.6,1.7h-1.6l-13,0.1l-11.1,0.1l-34.1,0.4h-1.4l-17.4,0.2h-0.5
	l-107,1.2l-95.5,1l-11.1,0.1l-69,0.8h-0.1l-44.8,0.5h-0.5l-141.5,1.5l-42.3,0.5c-3.6,0-7.2-0.1-10.8-0.5l0,0
	c-1.2-0.1-2.4-0.3-3.6-0.5c-19.7-3-37.8-12.8-51.3-27.5c-18.2-20-31.5-43.4-40.4-68.8c-1.3-3.7-2.5-7.4-3.6-11.1
	c-30.8-104.2,6.8-238.5,74.4-328.4c2.8-3.8,5.7-7.4,8.6-11l0.1-0.1c20.8-25.5,44.1-46.8,68.9-62c44-26.9,92.8-34.5,140.7-11.9
	c40.6,19.1,78.5,28.1,115.2,30.6c3.7,0.2,7.4,0.4,11.1,0.5C514.1,65.9,593,35.6,685.8,16c3.7-0.8,7.4-1.6,11.1-2.3
	C763,0.5,836.4-6.4,923.6,8.2c9.1,1.5,18,3.6,26.8,6.4c3.8,1.2,7.6,2.6,11.1,4c41.6,16.9,64.3,48.2,74,87.5
	c0.9,3.6,1.7,7.3,2.4,11.1C1055,211.5,1004.8,345.3,961.5,438.2z"/>
<path class="st1" d="M497,445.6c-0.4,3.7-1,7.5-1.9,11.1h93.7v-11.1H497z M418.8,508.4l11.1-0.1v-27.5c-3.8-0.2-7.5-0.3-11.1-0.5
	V508.4z M185.9,445.6v11.1h198.5v-11.1H185.9z M1035.5,106.1h-74V18.6c-3.6-1.4-7.3-2.8-11.1-4v91.5H696.9V13.7
	c-3.7,0.7-7.4,1.5-11.1,2.3v90.1H429.9V63.2c-3.7-0.1-7.4-0.3-11.1-0.5v43.4H162.9v-62c-24.8,15.2-48.1,36.5-68.9,62h-0.1v0.1
	c-2.9,3.6-5.8,7.3-8.6,11h8.6v328.4h-83c1.1,3.8,2.3,7.5,3.6,11.1h79.4v93.6c4,1.2,8.1,2.2,12.2,2.8c1.2,0.2,2.4,0.3,3.6,0.5l0,0
	c3.6,0.4,7.2,0.6,10.8,0.5l42.3-0.5v-97h255.9v94.2l11.1-0.1v-94.1h255.9v91.4l11.1-0.1v-91.2h253.5v4.8c0.8-1.6,1.5-3.2,2.3-4.8
	c1.8-3.6,3.5-7.3,5.3-11.1c1.2-2.4,2.3-4.9,3.5-7.4v-321h76.4C1037.2,113.4,1036.4,109.7,1035.5,106.1z M162.9,445.6V117.2h255.9
	v328.4H162.9z M429.9,445.6V117.2h255.9v328.4H429.9z M950.4,445.6H696.9V117.2h253.5L950.4,445.6z"/>
<polygon class="st2" points="817.8,498.9 817.8,508.4 698.5,509.4 697.3,509.4 651.9,509.8 650.8,509.8 637.1,509.9 636.7,509.9 
	552.7,510.7 414.8,511.9 414.7,511.9 379.7,512.2 379.3,512.2 223.5,513.5 223.5,502.5 260.2,482.1 333.6,481.5 335.2,481.5 
	335.7,481.5 337.3,481.5 372.6,481.2 374.1,481.2 374.6,481.2 376.2,481.2 387.5,481.1 387.8,481.1 415.7,480.8 416,480.8 
	633.7,479.1 639.1,479.1 639.6,479.1 643.7,479.1 673.2,478.8 674.8,478.8 676.2,478.8 677,478.8 686.2,478.7 688,478.7 
	690.4,478.7 698.1,478.6 710.2,478.5 711.8,478.5 714.5,478.5 715.1,478.5 773.7,478 "/>
<polygon class="st3" points="817.8,498.9 817.8,508.4 698.5,509.4 697.3,509.4 651.9,509.8 650.8,509.8 637.1,509.9 636.7,509.9 
	552.7,510.7 414.8,511.9 414.7,511.9 379.7,512.2 379.3,512.2 223.5,513.5 223.5,502.5 260.2,482.1 333.6,481.5 335.2,481.5 
	335.7,481.5 337.3,481.5 372.6,481.2 374.1,481.2 374.6,481.2 376.2,481.2 387.5,481.1 387.8,481.1 415.7,480.8 416,480.8 
	633.7,479.1 639.1,479.1 639.6,479.1 643.7,479.1 673.2,478.8 674.8,478.8 676.2,478.8 677,478.8 686.2,478.7 688,478.7 
	690.4,478.7 698.1,478.6 710.2,478.5 711.8,478.5 714.5,478.5 715.1,478.5 773.7,478 "/>
<path class="st4" d="M372.7,462.3v17.9c0,1.7-1.1,3.3-2.7,4.1c-0.6,0.3-1.3,0.4-2,0.4l-27.4,0.5c-0.7,0-1.5-0.1-2.1-0.4
	c-1.7-0.7-2.8-2.3-2.8-4.1v-18.5H372.7z"/>
<path class="st1" d="M372.7,462.3v17.9c0,1.7-1.1,3.3-2.7,4.1c-0.6,0.3-1.3,0.4-2,0.4l-27.4,0.5c-0.7,0-1.5-0.1-2.1-0.4
	c-1.7-0.7-2.8-2.3-2.8-4.1v-18.5H372.7z"/>
<path class="st4" d="M374.3,462.3v17.9c0,1.7-1.1,3.3-2.7,4.1c-0.6,0.3-1.3,0.4-2,0.4l-27.4,0.5c-0.7,0-1.5-0.1-2.1-0.4
	c-1.7-0.7-2.8-2.3-2.8-4.1v-18.5H374.3z"/>
<rect x="674.8" y="462.3" class="st4" width="37" height="23"/>
<rect x="674.8" y="462.3" class="st1" width="37" height="23"/>
<rect x="673.2" y="462.3" class="st4" width="37" height="23"/>
<polygon class="st1" points="374.3,462.3 374.3,465.9 337.2,466.9 337.2,462.3 "/>
<path class="st2" d="M439.6,337v123c0,1.6-1.3,2.8-3,2.9l-150.4,3.7h0c-1.7,0-3.1-1.3-3.1-2.9V337c0-1.6,1.4-2.9,3.1-2.9h150.4
	C438.2,334.2,439.6,335.5,439.6,337z"/>
<path class="st1" d="M286.1,334.2v132.5h0c-1.7,0-3.1-1.3-3.1-2.9V337C283,335.5,284.4,334.2,286.1,334.2L286.1,334.2z"/>
<polygon class="st5" points="293,342 432.3,342 432.3,450.4 293,453.4 "/>
<polygon class="st1" points="710.2,462.3 710.2,467 673.2,466.1 673.2,462.3 "/>
<path class="st2" d="M759.1,337v126.7c0,1.6-1.4,2.9-3.1,2.9l0,0l-150.5-3.7c-1.7-0.1-3-1.3-3-2.9V337c0-1.6,1.4-2.9,3.1-2.9H756
	C757.7,334.2,759.1,335.4,759.1,337z"/>
<path class="st1" d="M759.1,337v126.7c0,1.6-1.4,2.9-3.1,2.9l0,0V334.2l0,0C757.7,334.2,759.1,335.4,759.1,337z"/>
<polygon class="st5" points="749.1,342 609.8,342 609.8,450.4 749.1,453.4 "/>
<path class="st2" d="M598.6,337v123c0,1.6-1.3,2.8-3,2.9l-150.4,3.7l0,0c-1.7,0-3.1-1.3-3.1-2.9V337c0-1.6,1.4-2.9,3.1-2.9h150.4
	C597.2,334.2,598.6,335.5,598.6,337z"/>
<polygon class="st5" points="452,342 591.3,342 591.3,450.4 452,453.4 "/>
<polygon class="st1" points="817.8,498.9 817.8,508.4 698.5,509.4 697.3,509.4 651.9,509.8 650.8,509.8 637.1,509.9 636.7,509.9 
	552.7,510.7 414.8,511.9 414.7,511.9 379.7,512.2 379.3,512.2 223.5,513.5 223.5,502.5 382.5,501.6 382.9,501.6 415.1,501.4 
	415.2,501.4 637.4,500 637.7,500 637.8,500 638.2,500 641.9,500 643.1,500 701.5,499.6 705,499.6 705.8,499.6 "/>
<ellipse class="st6" cx="522.8" cy="326.6" rx="40.3" ry="37.5"/>
<path class="st6" d="M563.1,384.4c0,0-78.1,8.8-70.7,0c2.7-3.2,3.4-12.6,3.3-23.3c0-3.3-0.2-6.6-0.4-10c-0.9-16.1-2.9-31.8-2.9-31.8
	s68.3-30,60.4-6.2c-3.1,9.6-2.1,23.1,0.3,35.7c0.7,3.7,1.5,7.3,2.4,10.8C557.6,368,560.1,376.3,563.1,384.4z"/>
<path class="st7" d="M537.6,381.5c9-1.6,18.6-4.4,27.1-1.1c2.2,0.9,4.3,2.1,6.6,2.8c2.3,0.7,4.8,0.9,7.2,1.4
	c8.4,1.8,15.2,7.7,19.5,14.6s6.6,14.7,8.8,22.5l5.4,18.9c4.7,16.4,9.4,33,10.5,50c-65.6,3.5-131.3,3.8-196.9,1
	c4.3-7.6,8.6-15.6,8.3-24.1c-0.4-8.5-5.6-17-3.7-25.4c1.2-5.4,5.2-9.8,7.6-14.8c6.9-14.3,1.5-33.5,13.6-44.4
	c5.4-4.9,13.3-6.7,20.9-6.5c9.6,0.3,19.5,3.1,29,4.5C513.7,382.5,525.3,383.6,537.6,381.5z"/>
<path class="st1" d="M640.3,462.8l-0.1,1v0.1l-0.1,1.7l-1,13.5l-1.3,16.3l-0.4,4.6l-0.8,9.8v0.1l-84,0.7l-137.8,1.4v0.6h-0.1v-0.6
	v-0.2l0.4-10.5l0.7-20.5l0.6-17.4l0.1-1.7c0.1-4.3,4-7.6,8.5-7.5c0.2,0,0.3,0,0.4,0c3.7,0.3,8.5,0.7,14.3,1l2.4,0.2
	c33.2,2.2,94.6,4.9,156.6,1.5c1.3-0.1,2.6-0.1,3.9-0.2c9.6-0.6,19.2-1.3,28.7-2.2c4.5-0.4,8.6,2.6,9.1,6.9
	C640.4,461.8,640.4,462.3,640.3,462.8L640.3,462.8z"/>
<path class="st4" d="M414.8,512.7v-0.6l137.9-1.4l84-0.7h0.2v-0.1l0.8-9.8l0.3-4.4l1.3-16.5l1-13.1v-0.3c0-0.6,0-1.2-0.1-1.8
	c0,0,0,0,0-0.1c-0.2-1.2-0.8-2.4-1.6-3.4c-1.8-2.1-4.6-3.2-7.4-2.9c-9.5,0.9-19.1,1.6-28.7,2.2c-1.3,0.1-2.6,0.2-3.9,0.2
	c-62,3.4-123.4,0.7-156.6-1.5l-2.4-0.2c-5.8-0.4-10.6-0.7-14.3-1c-4.2-0.3-8,2.4-8.8,6.2c-0.1,0.4-0.1,0.8-0.1,1.2l-0.5,16.2
	l-0.7,20.5l-0.3,10.5v0.2L414.8,512.7L414.8,512.7z"/>
<path class="st1" d="M640.6,467.9l-1,11.2l-1.4,16.7l-0.4,4.2l-0.8,9.4l0,0.5v0.1l0,0l-0.1,1.1l0.1-1.1h-0.2l-84,0.7l-137.9,1.4
	v-0.2l0.4-10.5l0.8-20.5l0.5-13.6c0.1-1.6,1-3,2.4-3.8c0.9-0.5,1.9-0.7,3-0.7c1.6,0.1,3.7,0.3,6,0.4c3.8,0.3,8.6,0.6,14.1,0.9
	c10.2,0.6,23,1.2,37.7,1.8c40.8,1.5,95.9,2,148.3-2.3c2.4-0.2,4.8-0.4,7.2-0.6c0.9-0.1,1.9,0.1,2.7,0.5c0.2,0.1,0.5,0.2,0.7,0.4
	c0.7,0.5,1.2,1.1,1.6,1.8c0.1,0.1,0.1,0.3,0.2,0.4C640.5,466.6,640.6,467.2,640.6,467.9z"/>
<path class="st1" d="M374.3,477.9v2.3c0,1.7-1.1,3.3-2.7,4.1l-31.5,0.6c-1.7-0.7-2.8-2.3-2.8-4.1v-2.2L374.3,477.9z"/>
<polygon class="st4" points="374.6,485.7 333.6,486.4 333.6,480 374.6,479.3 "/>
<polygon class="st1" points="374.6,485.7 333.6,486.4 333.6,480 374.6,479.3 "/>
<polygon class="st4" points="376.2,485.7 335.2,486.4 335.2,480 376.2,479.3 "/>
<path class="st1" d="M673.4,479.4v2.3c0,1.7,1.1,3.3,2.7,4.1l31.5,0.6c1.7-0.7,2.8-2.3,2.8-4.1V480L673.4,479.4z"/>
<polygon class="st1" points="673.1,487.1 714.1,487.9 714.1,481.5 673.1,480.8 "/>
<polygon class="st4" points="671.5,487.1 712.5,487.9 712.5,481.5 671.5,480.8 "/>
<path class="st4" d="M497.3,338.2c0.1,5.1-2.5,9.9-4.6,14.7c-7.9,17.2-11.3,36-9.9,54.6c0.6,8,2,16.1,0.6,24.1s-6.6,15.9-14.9,18.2
	c13.8,7.6,32.4,6.8,45.3-1.9c6.9-4.7,12-11.2,17.1-17.6c-0.6,11.5-4.2,22.8-10.4,32.7c22.9-1.9,43.9-12.7,57.7-29.9
	c3.4-4.2,6.3-8.9,7.6-14.1c2.4-9.5-1-19.4-3.5-28.9c-2.2-7.9-3.8-16-4.8-24.1c-0.3-2.6-0.6-5.3,0.1-7.8c0.8-3,2.9-5.5,4.4-8.2
	c4.4-7.7,4.5-17,2.2-25.5s-6.7-16.3-11-24c-3.5-6.2-7.3-12.7-13.7-16.3c-4-2.3-8.6-3.2-13.3-4.1l-19.9-4c-4.4-0.9-8.8-1.7-13.2-1.1
	c-7.4,1.1-12.7,6.1-17.3,11.2c-3.6,4-12.4,11.5-13,16.7c-0.6,4.8,4,12.9,4.8,18c1,6.6,1.7,4.4,5.7,8.4
	C495.6,331.8,497.2,334.7,497.3,338.2z"/>
<path class="st0" d="M376,352.6h-78.2c-0.2,0-0.4-0.2-0.4-0.4s0.2-0.4,0.4-0.4H376c0.2,0,0.4,0.2,0.4,0.4S376.2,352.6,376,352.6z"/>
<path class="st0" d="M376,359.2h-78.2c-0.2,0-0.4-0.2-0.4-0.4s0.2-0.4,0.4-0.4H376c0.2,0,0.4,0.2,0.4,0.4S376.2,359.2,376,359.2z"/>
<path class="st0" d="M376,365.7h-78.2c-0.2,0-0.4-0.2-0.4-0.4c0-0.2,0.2-0.4,0.4-0.4H376c0.2,0,0.4,0.2,0.4,0.4
	C376.4,365.6,376.2,365.7,376,365.7z"/>
<g>
	<path class="st8" d="M734.9,121.1c-7.3,0-13.1-1.9-17.5-5.8c-4.4-3.9-6.6-8.8-6.6-14.7c0-6,2.2-11,6.6-14.8c4.4-4,10.2-6,17.5-6
		c7.2,0,12.9,2,17.3,6c4.4,3.9,6.6,8.8,6.6,14.8c0,5.9-2.2,10.8-6.6,14.7C747.8,119.1,742,121.1,734.9,121.1z M755.6,235.5h-41.8
		v-106h41.8V235.5z M259.4,132.5c-4.9,2.8-8.7,6.6-11.3,11.5V96.4h-41.8v139.1h41.8V221c2.6,4.9,6.4,8.8,11.3,11.7
		c5,2.8,11,4.1,17.9,4.1c8.3,0,15.8-2.1,22.4-6.4c6.7-4.4,11.9-10.7,15.6-18.8c3.9-8.3,5.8-18,5.8-29.1c0-11.2-1.9-20.8-5.8-28.9
		c-3.8-8.3-9-14.5-15.6-18.8c-6.7-4.4-14.1-6.6-22.4-6.6C270.4,128.2,264.5,129.6,259.4,132.5z M274.5,169.4
		c2.9,3.1,4.3,7.5,4.3,13.2c0,5.6-1.4,10-4.3,13.2c-2.9,3.1-6.6,4.7-11.1,4.7c-4.5,0-8.2-1.6-11.1-4.7c-2.9-3.1-4.3-7.5-4.3-13.2
		c0-5.6,1.4-10,4.3-13.2c2.9-3.1,6.6-4.7,11.1-4.7C267.9,164.7,271.6,166.2,274.5,169.4z M356.1,230.3c8.5,4.4,18.2,6.6,28.8,6.6
		c10.7,0,20.3-2.2,28.8-6.6c8.5-4.4,15.2-10.7,20-18.8c4.9-8.3,7.4-17.9,7.4-28.9c0-11-2.5-20.6-7.4-28.8c-4.8-8.3-11.4-14.6-20-19
		c-8.5-4.4-18.2-6.6-28.8-6.6c-10.7,0-20.3,2.2-28.8,6.6c-8.5,4.4-15.3,10.7-20.2,19c-4.8,8.1-7.2,17.7-7.2,28.8
		c0,11,2.4,20.7,7.2,28.9C340.8,219.6,347.5,225.9,356.1,230.3z M528.7,128.8c12.2,0,21.7,4.1,28.5,12.2
		c6.9,8.1,10.4,19.2,10.4,33.1v61.5h-41.7v-56.2c0-5-1.4-9-4.1-11.8c-2.6-3-6.2-4.5-10.7-4.5c-4.6,0-8.3,1.5-10.9,4.5
		c-2.6,2.9-4,6.8-4,11.8v56.2h-41.8v-106h41.8v16.2c3.3-5,7.6-9.1,13-12.2C514.6,130.3,521.1,128.8,528.7,128.8z M585.7,153.6
		c-3.8,8.1-5.7,17.8-5.7,28.9c0,11.2,1.9,20.9,5.7,29.1c3.9,8.1,9.2,14.4,15.8,18.8c6.7,4.3,14.1,6.4,22.4,6.4
		c6.9,0,12.8-1.4,17.7-4.1c5-2.9,8.9-6.8,11.5-11.7v14.5H695V96.4h-41.8V144c-2.6-4.9-6.5-8.7-11.5-11.5c-4.9-2.9-10.8-4.3-17.7-4.3
		c-8.3,0-15.8,2.2-22.4,6.6C594.8,139,589.6,145.3,585.7,153.6z M649,169.4c2.9,3.1,4.3,7.5,4.3,13.2c0,5.6-1.4,10-4.3,13.2
		c-2.9,3.1-6.6,4.7-11.1,4.7c-4.5,0-8.2-1.6-11.1-4.7c-2.9-3.1-4.3-7.5-4.3-13.2c0-5.6,1.4-10,4.3-13.2c2.9-3.1,6.6-4.7,11.1-4.7
		C642.4,164.7,646.1,166.2,649,169.4z M876.9,189.8c0.4-2.6,0.6-5.4,0.6-8.3c0-10.9-2.3-20.4-7-28.4c-4.5-8-10.9-14.2-19.2-18.4
		c-8.2-4.4-17.5-6.6-28.1-6.6c-10.6,0-20,2.2-28.3,6.6c-8.2,4.4-14.6,10.7-19.2,19c-4.5,8.1-6.8,17.7-6.8,28.8
		c0,11,2.3,20.7,6.8,28.9c4.6,8.1,11.1,14.4,19.2,18.8c8.3,4.4,17.7,6.6,28.3,6.6c8.8,0,16.8-1.7,24.1-5.1
		c7.4-3.5,13.5-8.2,18.3-14.1c4.9-6,8.1-12.8,9.6-20.3h-44.3c-2,4.1-5.3,6.2-9.8,6.2c-7,0-10.9-4.6-11.5-13.7H876.9z M831.6,163.7
		c2.3,1.8,3.4,4.4,3.4,7.9h-24.9c1.3-7.1,5.6-10.7,13-10.7C826.5,160.9,829.4,161.8,831.6,163.7z M423.5,180.6
		c0,20.4-17.4,36.9-38.8,36.9s-38.8-16.5-38.8-36.9H423.5z"/>
	<path class="st9" d="M734.9,109.4c-7.3,0-13.1-1.9-17.5-5.8c-4.4-3.9-6.6-8.8-6.6-14.7c0-6,2.2-11,6.6-14.8c4.4-4,10.2-6,17.5-6
		c7.2,0,12.9,2,17.3,6c4.4,3.9,6.6,8.8,6.6,14.8c0,5.9-2.2,10.8-6.6,14.7C747.8,107.5,742,109.4,734.9,109.4z M755.6,223.9h-41.8
		v-106h41.8V223.9z M259.4,120.9c-4.9,2.8-8.7,6.6-11.3,11.5V84.8h-41.8v139.1h41.8v-14.5c2.6,4.9,6.4,8.8,11.3,11.7
		c5,2.8,11,4.1,17.9,4.1c8.3,0,15.8-2.1,22.4-6.4c6.7-4.4,11.9-10.7,15.6-18.8c3.9-8.3,5.8-18,5.8-29.1c0-11.2-1.9-20.8-5.8-28.9
		c-3.8-8.3-9-14.5-15.6-18.8c-6.7-4.4-14.1-6.6-22.4-6.6C270.4,116.6,264.5,118,259.4,120.9z M274.5,157.7c2.9,3.1,4.3,7.5,4.3,13.2
		c0,5.6-1.4,10-4.3,13.2c-2.9,3.1-6.6,4.7-11.1,4.7c-4.5,0-8.2-1.6-11.1-4.7c-2.9-3.1-4.3-7.5-4.3-13.2c0-5.6,1.4-10,4.3-13.2
		c2.9-3.1,6.6-4.7,11.1-4.7C267.9,153,271.6,154.6,274.5,157.7z M356.1,218.6c8.5,4.4,18.2,6.6,28.8,6.6c10.7,0,20.3-2.2,28.8-6.6
		c8.5-4.4,15.2-10.7,20-18.8c4.9-8.3,7.4-17.9,7.4-28.9c0-11-2.5-20.6-7.4-28.8c-4.8-8.3-11.4-14.6-20-19
		c-8.5-4.4-18.2-6.6-28.8-6.6c-10.7,0-20.3,2.2-28.8,6.6c-8.5,4.4-15.3,10.7-20.2,19c-4.8,8.1-7.2,17.7-7.2,28.8
		c0,11,2.4,20.7,7.2,28.9C340.8,208,347.5,214.2,356.1,218.6z M528.7,117.1c12.2,0,21.7,4.1,28.5,12.2c6.9,8.1,10.4,19.2,10.4,33.1
		v61.5h-41.7v-56.2c0-5-1.4-9-4.1-11.8c-2.6-3-6.2-4.5-10.7-4.5c-4.6,0-8.3,1.5-10.9,4.5c-2.6,2.9-4,6.8-4,11.8v56.2h-41.8v-106
		h41.8V134c3.3-5,7.6-9.1,13-12.2C514.6,118.7,521.1,117.1,528.7,117.1z M585.7,141.9c-3.8,8.1-5.7,17.8-5.7,28.9
		c0,11.2,1.9,20.9,5.7,29.1c3.9,8.1,9.2,14.4,15.8,18.8c6.7,4.3,14.1,6.4,22.4,6.4c6.9,0,12.8-1.4,17.7-4.1c5-2.9,8.9-6.8,11.5-11.7
		v14.5H695V84.8h-41.8v47.5c-2.6-4.9-6.5-8.7-11.5-11.5c-4.9-2.9-10.8-4.3-17.7-4.3c-8.3,0-15.8,2.2-22.4,6.6
		C594.8,127.4,589.6,133.7,585.7,141.9z M649,157.7c2.9,3.1,4.3,7.5,4.3,13.2c0,5.6-1.4,10-4.3,13.2c-2.9,3.1-6.6,4.7-11.1,4.7
		c-4.5,0-8.2-1.6-11.1-4.7c-2.9-3.1-4.3-7.5-4.3-13.2c0-5.6,1.4-10,4.3-13.2c2.9-3.1,6.6-4.7,11.1-4.7
		C642.4,153,646.1,154.6,649,157.7z M876.9,178.2c0.4-2.6,0.6-5.4,0.6-8.3c0-10.9-2.3-20.4-7-28.4c-4.5-8-10.9-14.2-19.2-18.4
		c-8.2-4.4-17.5-6.6-28.1-6.6c-10.6,0-20,2.2-28.3,6.6c-8.2,4.4-14.6,10.7-19.2,19c-4.5,8.1-6.8,17.7-6.8,28.8
		c0,11,2.3,20.7,6.8,28.9c4.6,8.1,11.1,14.4,19.2,18.8c8.3,4.4,17.7,6.6,28.3,6.6c8.8,0,16.8-1.7,24.1-5.1
		c7.4-3.5,13.5-8.2,18.3-14.1c4.9-6,8.1-12.8,9.6-20.3h-44.3c-2,4.1-5.3,6.2-9.8,6.2c-7,0-10.9-4.6-11.5-13.7H876.9z M831.6,152.1
		c2.3,1.8,3.4,4.4,3.4,7.9h-24.9c1.3-7.1,5.6-10.7,13-10.7C826.5,149.3,829.4,150.2,831.6,152.1z M423.5,168.9
		c0,20.4-17.4,36.9-38.8,36.9s-38.8-16.5-38.8-36.9H423.5z"/>
</g>
</svg>
